<svg width="77" height="83" viewBox="0 0 77 83" fill="none" xmlns="http://www.w3.org/2000/svg">
<path d="M50.831 64.1862C50.8309 64.1862 50.8309 64.186 50.8307 64.186C50.5176 63.9868 50.1994 63.7949 49.8758 63.6102C46.4672 61.6584 42.5175 60.5383 38.2805 60.5383C34.0435 60.5383 30.1362 61.6584 26.7275 63.6102C26.4041 63.7945 26.0857 63.9866 25.7726 64.186C25.7725 64.186 25.7725 64.1862 25.7723 64.1862C25.7721 64.1864 25.7718 64.1865 25.7715 64.1867C25.5809 64.3081 25.3928 64.4328 25.2064 64.5594C25.1565 64.5932 25.1071 64.6275 25.0576 64.6617C24.9082 64.7648 24.7603 64.8696 24.6133 64.976C24.5738 65.0047 24.5338 65.0331 24.4946 65.0619C24.1185 65.3383 23.7519 65.626 23.3943 65.9242C23.3667 65.9472 23.3394 65.9702 23.312 65.9934C23.1383 66.1394 22.9665 66.2878 22.7973 66.4389C22.7945 66.4414 22.7915 66.4439 22.7887 66.4465C22.4223 66.7739 22.0675 67.1134 21.7235 67.4632C21.7166 67.4704 21.7096 67.4775 21.7026 67.4846C19.0799 70.1596 17.1277 73.4661 16.1116 77.1484C22.628 80.867 30.2092 82.9999 38.3014 82.9999C46.3936 82.9999 53.9749 80.8668 60.4913 77.1484C59.0026 71.7525 55.506 67.161 50.831 64.1862Z" fill="#ACB958"/>
<path d="M21.4004 79.7159C22.9081 80.3285 24.458 80.8618 26.045 81.3102V71.1973C23.7239 73.4898 22.0724 76.4303 21.4004 79.7159Z" fill="#949C53"/>
<path d="M50.5581 71.1974V81.3104C52.1452 80.8621 53.695 80.3286 55.2027 79.716C54.5308 76.4303 52.8793 73.4898 50.5581 71.1974Z" fill="#949C53"/>
<path d="M32.5081 74.614C33.3014 74.614 33.9445 73.986 33.9445 73.2114C33.9445 72.4368 33.3014 71.8088 32.5081 71.8088C31.7149 71.8088 31.0718 72.4368 31.0718 73.2114C31.0718 73.986 31.7149 74.614 32.5081 74.614Z" fill="#949C53"/>
<path d="M32.5562 80.2241C33.3495 80.2241 33.9926 79.5961 33.9926 78.8215C33.9926 78.0469 33.3495 77.4189 32.5562 77.4189C31.763 77.4189 31.1199 78.0469 31.1199 78.8215C31.1199 79.5961 31.763 80.2241 32.5562 80.2241Z" fill="#949C53"/>
<path d="M52.1125 65.0637L52.0305 65.0368C51.6349 64.7482 51.2311 64.47 50.8162 64.2065C50.5078 64.0105 50.1942 63.8215 49.8758 63.6399C46.5014 61.7097 42.5837 60.5947 38.3967 60.57L38.3017 60.5388V60.5683C38.286 60.5683 38.2705 60.5675 38.2547 60.5675C34.0142 60.5675 30.1401 61.6876 26.7275 63.6397C26.5758 63.7261 26.4255 63.8143 26.2763 63.9043C26.1319 63.991 25.9888 64.0797 25.8468 64.1695C25.8427 64.1721 25.8382 64.1747 25.834 64.1773C25.8339 64.1773 25.8337 64.1774 25.8337 64.1776C25.8184 64.1873 25.8027 64.1967 25.7872 64.2065C25.7876 64.2069 25.7881 64.2074 25.7884 64.2079C25.3508 64.4858 24.9276 64.7826 24.5112 65.0882C24.6333 65.1953 24.7574 65.3052 24.8763 65.4087C26.0351 66.4191 27.3179 67.2995 28.6888 68.0254C31.6309 69.5831 34.9552 70.4063 38.3019 70.4063C41.8911 70.4063 45.3778 69.475 48.4318 67.7404C49.2775 67.2599 50.3436 67.3718 51.0908 67.9885C54.3616 70.6869 56.734 74.3924 57.6964 78.6124C58.6478 78.1559 59.5806 77.6681 60.4921 77.1482C59.142 72.2574 56.1432 68.0278 52.1125 65.0637Z" fill="#949C53"/>
<path d="M76.5979 39.7101C76.4416 35.4405 72.9573 31.9176 68.5923 31.6238C66.9622 31.5141 65.4224 31.8506 64.083 32.5164C64.0789 32.5013 64.0742 32.4861 64.0702 32.4708L55.2462 23.6121L55.1129 23.4832C54.3713 22.7704 53.5082 22.2245 52.5802 21.8498C50.3074 20.9325 47.6416 21.0476 45.3946 22.2969C43.2453 23.4918 40.7926 24.1236 38.3016 24.1236C35.8109 24.1236 33.3582 23.4918 31.2086 22.2969C28.0437 20.5377 24.0476 21.0253 21.4911 23.4823L12.52 32.5166L30.7423 64.3268C33.0464 65.5466 35.642 66.1988 38.3014 66.1988C42.195 66.1988 45.9527 64.8024 48.857 62.2703C53.2251 58.4615 59.5125 52.4434 62.8427 46.7714C64.2782 47.8154 66.0578 48.4337 67.9853 48.4337C72.8499 48.4337 76.773 44.4982 76.5979 39.7101Z" fill="#E1B872"/>
<path d="M12.5194 32.5159C11.1801 31.8506 9.64066 31.5141 8.01073 31.6238C3.64604 31.9177 0.162052 35.4404 0.00566607 39.7096C-0.169811 44.4978 3.75328 48.4335 8.61784 48.4335C10.5454 48.4335 12.325 47.8152 13.7605 46.7713C17.0906 52.4434 23.378 58.4615 27.7462 62.2701C28.6668 63.0727 29.6735 63.7604 30.7426 64.3265C34.6 64.3023 38.3182 62.9104 41.1971 60.4002C47.3936 54.9974 57.4527 45.1487 57.4527 38.1484C57.4527 38.1322 57.4527 38.116 57.4527 38.0997C57.4474 35.2465 56.2435 32.5197 54.1774 30.5022L51.0861 27.4838C50.3491 26.7755 49.179 26.6482 48.2376 27.1717C45.2234 28.8476 41.7877 29.7333 38.3019 29.7333C34.8161 29.7333 31.3804 28.8477 28.3664 27.172C27.4248 26.6484 26.2547 26.7758 25.5213 27.481L25.4154 27.5836L17.8458 34.9751C17.841 34.9798 17.8361 34.9845 17.8313 34.9892C17.1394 35.6587 15.9935 35.5618 15.3904 34.8149C14.6193 33.8601 13.6403 33.0728 12.5207 32.5166" fill="#ECCE93"/>
<path d="M67.9854 42.8234C69.5718 42.8234 70.8579 41.5676 70.8579 40.0185C70.8579 38.4693 69.5718 37.2135 67.9854 37.2135C66.3989 37.2135 65.1128 38.4693 65.1128 40.0185C65.1128 41.5676 66.3989 42.8234 67.9854 42.8234Z" fill="#D5A150"/>
<path d="M8.61791 42.8234C10.2044 42.8234 11.4905 41.5676 11.4905 40.0185C11.4905 38.4693 10.2044 37.2135 8.61791 37.2135C7.03145 37.2135 5.74536 38.4693 5.74536 40.0185C5.74536 41.5676 7.03145 42.8234 8.61791 42.8234Z" fill="#E1B872"/>
<path d="M31.5988 41.421C30.8054 41.421 30.1624 40.793 30.1624 40.0184C30.1624 39.245 29.5181 38.6159 28.7261 38.6159C27.934 38.6159 27.2897 39.245 27.2897 40.0184C27.2897 40.793 26.6469 41.421 25.8534 41.421C25.0598 41.421 24.417 40.793 24.417 40.0184C24.417 37.6983 26.3501 35.8109 28.7259 35.8109C31.1017 35.8109 33.0348 37.6983 33.0348 40.0184C33.0351 40.793 32.3922 41.421 31.5988 41.421Z" fill="#474641"/>
<path d="M50.7497 41.421C49.9563 41.421 49.3133 40.793 49.3133 40.0184C49.3133 39.245 48.669 38.6159 47.8769 38.6159C47.0849 38.6159 46.4406 39.245 46.4406 40.0184C46.4406 40.793 45.7978 41.421 45.0042 41.421C44.2108 41.421 43.5679 40.793 43.5679 40.0184C43.5679 37.6983 45.5009 35.8109 47.8768 35.8109C50.2526 35.8109 52.1857 37.6983 52.1857 40.0184C52.1859 40.793 51.543 41.421 50.7497 41.421Z" fill="#474641"/>
<path d="M21.757 36.4784C21.4637 36.4784 21.1675 36.3909 20.9124 36.2093C20.2712 35.7532 20.1303 34.876 20.5973 34.2499C21.8396 32.5849 23.6229 31.3184 25.6184 30.6835C26.3729 30.4436 27.1832 30.8463 27.4289 31.5826C27.6746 32.3191 27.2626 33.1106 26.5082 33.3507C25.083 33.804 23.8082 34.71 22.919 35.9018C22.6381 36.2785 22.2006 36.4784 21.757 36.4784Z" fill="#BB9430"/>
<path d="M54.8462 36.4775C54.4028 36.4775 53.9653 36.2776 53.6842 35.9007C52.7949 34.7089 51.5202 33.803 50.095 33.3496C49.3408 33.1097 48.9286 32.3181 49.1743 31.5815C49.42 30.845 50.2298 30.4425 50.9848 30.6825C52.9803 31.3173 54.7635 32.5837 56.006 34.2488C56.4731 34.8749 56.3322 35.7521 55.6909 36.2082C55.4357 36.3903 55.1397 36.4775 54.8462 36.4775Z" fill="#BB9430"/>
<path d="M38.3016 47.0311C35.9256 47.0311 33.9927 45.1437 33.9927 42.8236C33.9927 42.049 34.6358 41.421 35.429 41.421C36.2223 41.421 36.8654 42.049 36.8654 42.8236C36.8654 43.597 37.5097 44.2261 38.3018 44.2261C39.0938 44.2261 39.7381 43.597 39.7381 42.8236C39.7381 42.049 40.3813 41.421 41.1745 41.421C41.9677 41.421 42.6108 42.049 42.6108 42.8236C42.6105 45.1437 40.6776 47.0311 38.3016 47.0311Z" fill="#474641"/>
<path d="M67.9853 31.6034C67.9789 24.9182 65.2381 18.8671 60.8087 14.4864C56.3758 10.0986 50.2507 7.3854 43.4846 7.3854C43.4846 2.50545 38.7767 -1.04342 34.0274 0.278734C19.9543 4.19252 8.63012 16.6301 8.61833 31.6034H8.61816C10.0228 31.6034 11.3479 31.9336 12.5198 32.5159L14.038 33.2678C14.6291 33.5606 15.3459 33.449 15.8144 32.9914C15.8144 32.9914 21.4934 27.446 23.3865 25.5975C23.4263 25.5586 23.4662 25.52 23.506 25.4816C25.1808 23.8718 27.7457 23.5987 29.7879 24.7339C32.2992 26.1305 35.2051 26.9282 38.3018 26.9282C41.3986 26.9282 44.3043 26.1305 46.816 24.7341C48.8583 23.5988 51.4229 23.872 53.0978 25.4817C53.1378 25.5203 53.1777 25.5587 53.2175 25.5976C55.1106 27.4462 60.7896 32.9916 60.7896 32.9916C61.2583 33.4492 61.9751 33.5606 62.566 33.268L64.0808 32.5176C65.2534 31.9343 66.5797 31.6034 67.9857 31.6034H67.9853Z" fill="#BB9430"/>
<path d="M43.4846 7.38522L35.6209 14.5081C33.8417 16.1196 34.7805 19.0489 37.1884 19.3451C37.7412 19.4132 38.3045 19.4482 38.8762 19.4482C44.2327 19.4482 48.8541 16.38 51.0005 11.9457C51.7777 10.3398 50.8496 8.43034 49.0797 8.02101C47.2826 7.60537 45.4098 7.38522 43.4846 7.38522Z" fill="#D9B43A"/>
<path d="M31.0749 1.24066C31.1762 1.24569 31.276 1.2525 31.3739 1.26109C35.0312 1.57817 36.5331 6.03356 33.861 8.49242L16.6202 24.357C15.211 25.6537 13.3854 26.4642 11.4513 26.555C10.6021 26.5949 9.76361 26.4965 9.13574 26.1202C11.3112 14.6662 20.1082 5.33649 31.0749 1.24066Z" fill="#D9B43A"/>
<path opacity="0.2" d="M59.3668 40.0194C59.3939 39.5174 59.1319 39.0296 58.6739 38.7996C57.5825 38.2513 56.4941 39.0106 56.4941 40.0185C56.4941 43.1173 53.9214 45.6286 50.7478 45.6286H46.9195C45.3331 45.6286 42.9937 45.1204 42.9937 43.5713C42.4937 42.0713 41.3129 42.1233 40.9937 40.5713H35.4937C35.058 42.6233 34.4937 42.0713 33.4937 43.5713C33.4937 45.1204 31.2707 45.6286 29.6842 45.6286H25.8536C22.6801 45.6286 20.1073 43.1183 20.1073 40.0194C20.1344 39.5174 19.8724 39.0296 19.4144 38.7996C18.323 38.2513 17.2346 39.0106 17.2346 40.0185C17.2346 42.7847 15.8692 45.2371 13.7593 46.7698C17.0892 52.4425 23.3772 58.4614 27.7458 62.2705C28.6664 63.0731 29.6731 63.7607 30.7422 64.3268C33.0465 65.5467 35.6422 66.1988 38.3017 66.1988C42.1953 66.1988 45.953 64.8024 48.8573 62.2703C53.2256 58.4616 59.5129 52.4433 62.8432 46.7709C60.7323 45.2387 59.3668 42.787 59.3668 40.0194Z" fill="#80531A"/>
<path d="M42.6886 41.141C42.3314 39.3283 39.2224 38.2543 38.4997 39.6134C37.7782 38.2538 34.6692 39.3278 34.3119 41.141C33.8447 43.0359 31.3727 43.5569 30 42.5687C30 44.7107 32.3071 44.7385 33.7347 44.8752C37.1164 44.7273 38.1851 43.1666 38.4997 42.4545C38.8143 43.1672 39.8836 44.7273 43.2653 44.8752C44.6941 44.7385 47 44.7107 47 42.5687C45.6268 43.5569 43.1553 43.0359 42.6886 41.141Z" fill="#BB9430"/>
</svg>
