<svg width="58" height="59" viewBox="0 0 58 59" fill="none" xmlns="http://www.w3.org/2000/svg">
<path d="M41.5667 55.0667H14.5001C13.9665 55.0667 13.5334 55.5073 13.5334 56.05V58.0167C13.5334 58.5595 13.9665 59 14.5001 59C15.0336 59 15.4667 58.5595 15.4667 58.0167V57.0334H41.5667C42.1003 57.0334 42.5333 56.5929 42.5333 56.0501C42.5333 55.5074 42.1004 55.0667 41.5667 55.0667Z" fill="black"/>
<path d="M21.2666 24.5833C21.2666 25.126 21.6997 25.5666 22.2332 25.5666H26.1C26.6335 25.5666 27.0666 25.126 27.0666 24.5833V18.6833C27.0666 18.1405 26.6335 17.7 26.1 17.7H22.2333C21.6998 17.7 21.2667 18.1405 21.2667 18.6833V24.5833H21.2666ZM23.2 19.6667H25.1333V23.6H23.2V19.6667Z" fill="black"/>
<path d="M12.5666 11.8H0.966629C0.433074 11.8 0 12.2405 0 12.7833V32.45C0 32.9928 0.433074 33.4333 0.966629 33.4333C1.50018 33.4333 1.93326 32.9928 1.93326 32.45V13.7667H12.5666C13.1002 13.7667 13.5333 13.3262 13.5333 12.7834C13.5333 12.2407 13.1003 11.8 12.5666 11.8Z" fill="black"/>
<path d="M46.3999 48.1833C46.3999 48.7261 46.833 49.1666 47.3665 49.1666H51.2332C51.7667 49.1666 52.1998 48.7261 52.1998 48.1833V42.2833C52.1998 41.7405 51.7667 41.3 51.2332 41.3H47.3665C46.833 41.3 46.3999 41.7405 46.3999 42.2833V48.1833ZM48.3333 43.2667H50.2666V47.2H48.3333V43.2667Z" fill="black"/>
<path d="M4.83337 35.4C0.0550547 35.4 0 48.0555 0 48.1833C0 50.558 1.66365 52.5434 3.86663 53.0007V58.0167C3.86663 58.5595 4.2997 59 4.83326 59C5.36681 59 5.79989 58.5595 5.79989 58.0167V53.0007C8.00287 52.5434 9.66652 50.558 9.66652 48.1833C9.66663 48.0555 9.61157 35.4 4.83337 35.4ZM4.83337 51.1333C3.23452 51.1333 1.93337 49.8097 1.93337 48.1833C1.93337 43.2843 3.22682 37.3666 4.83337 37.3666C6.43993 37.3666 7.73337 43.2843 7.73337 48.1833C7.73337 49.8097 6.43222 51.1333 4.83337 51.1333Z" fill="black"/>
<path d="M10.6334 29.5H6.76668C6.23312 29.5 5.80005 29.9405 5.80005 30.4833V32.45C5.80005 32.9928 6.23312 33.4333 6.76668 33.4333C7.30023 33.4333 7.73331 32.9928 7.73331 32.45V31.4667H9.66668V36.3834C9.66668 36.9262 10.0998 37.3667 10.6333 37.3667C11.1669 37.3667 11.5999 36.9262 11.5999 36.3834V30.4834C11.6 29.9405 11.167 29.5 10.6334 29.5Z" fill="black"/>
<path d="M47.3665 25.5667H51.2332C51.7667 25.5667 52.1998 25.1262 52.1998 24.5834V18.6834C52.1998 18.1407 51.7667 17.7001 51.2332 17.7001H47.3665C46.833 17.7001 46.3999 18.1407 46.3999 18.6834V24.5834C46.3999 25.1262 46.833 25.5667 47.3665 25.5667ZM48.3333 19.6667H50.2666V23.6H48.3333V19.6667Z" fill="black"/>
<path d="M10.6334 17.7H6.76668C6.23312 17.7 5.80005 18.1405 5.80005 18.6833V24.5833C5.80005 25.126 6.23312 25.5666 6.76668 25.5666H10.6333C11.1669 25.5666 11.5999 25.126 11.5999 24.5833V18.6833C11.6 18.1405 11.167 17.7 10.6334 17.7ZM9.66668 23.6H7.73342V19.6667H9.66679V23.6H9.66668Z" fill="black"/>
<path d="M30.9333 24.5833C30.9333 25.126 31.3664 25.5666 31.9 25.5666H35.7666C36.3002 25.5666 36.7332 25.126 36.7332 24.5833V18.6833C36.7332 18.1405 36.3002 17.7 35.7666 17.7H31.9C31.3664 17.7 30.9333 18.1405 30.9333 18.6833V24.5833ZM32.8666 19.6667H34.8V23.6H32.8666V19.6667Z" fill="black"/>
<path d="M57.0334 11.8H45.4334C44.8999 11.8 44.4668 12.2405 44.4668 12.7833C44.4668 13.3261 44.8999 13.7666 45.4334 13.7666H56.0668V53.2809C55.7633 53.1708 55.4414 53.1 55.1002 53.1C54.933 53.1 54.7667 53.1148 54.6033 53.1443C53.9363 51.922 52.6671 51.1333 51.2335 51.1333C49.8 51.1333 48.5308 51.922 47.8638 53.1443C47.7004 53.1148 47.5341 53.1 47.3669 53.1C45.7681 53.1 44.4669 54.4236 44.4669 56.05C44.4669 57.6764 45.7681 59 47.3669 59H55.1001C56.6989 59 58.0001 57.6764 58.0001 56.05V12.7833C58.0001 12.2405 57.567 11.8 57.0334 11.8ZM55.1001 57.0333H47.3667C46.834 57.0333 46.4001 56.5918 46.4001 56.05C46.4001 55.5082 46.834 55.0667 47.3667 55.0667C47.5522 55.0667 47.7282 55.1208 47.8906 55.227C48.1555 55.4001 48.4861 55.4315 48.7781 55.3116C49.07 55.1916 49.2856 54.934 49.3561 54.6222C49.5602 53.7264 50.3325 53.1 51.2334 53.1C52.1344 53.1 52.9067 53.7264 53.1107 54.6222C53.1813 54.934 53.3969 55.1916 53.6888 55.3116C53.9798 55.4315 54.3113 55.4001 54.5762 55.227C55.2055 54.814 56.0668 55.3194 56.0668 56.05C56.0667 56.5918 55.6327 57.0333 55.1001 57.0333Z" fill="black"/>
<path d="M31.9 13.7667H35.7666C36.3002 13.7667 36.7332 13.3262 36.7332 12.7834V6.88341C36.7332 6.34066 36.3002 5.90012 35.7666 5.90012H31.9C31.3664 5.90012 30.9333 6.34066 30.9333 6.88341V12.7834C30.9333 13.3262 31.3664 13.7667 31.9 13.7667ZM32.8666 7.86671H34.8V11.8H32.8666V7.86671Z" fill="black"/>
<path d="M30.9333 36.3833C30.9333 36.926 31.3664 37.3666 31.9 37.3666H35.7666C36.3002 37.3666 36.7332 36.926 36.7332 36.3833V30.4833C36.7332 29.9405 36.3002 29.5 35.7666 29.5H31.9C31.3664 29.5 30.9333 29.9405 30.9333 30.4833V36.3833ZM32.8666 31.4667H34.8V35.4H32.8666V31.4667Z" fill="black"/>
<path d="M22.2335 13.7667H26.1001C26.6337 13.7667 27.0667 13.3262 27.0667 12.7834V6.88341C27.0667 6.34066 26.6337 5.90012 26.1001 5.90012H22.2335C21.6999 5.90012 21.2668 6.34066 21.2668 6.88341V12.7834C21.2667 13.3262 21.6998 13.7667 22.2335 13.7667ZM23.2001 7.86671H25.1335V11.8H23.2001V7.86671Z" fill="black"/>
<path d="M28.3136 47.4852C28.1396 47.672 28.0332 47.9277 28.0332 48.1834C28.0332 48.4391 28.1396 48.6947 28.3136 48.8816C28.4972 49.0586 28.7486 49.1668 28.9999 49.1668C29.2513 49.1668 29.5026 49.0586 29.6863 48.8816C29.8603 48.6948 29.9667 48.4391 29.9667 48.1834C29.9667 47.9277 29.8603 47.6721 29.6863 47.4852C29.3189 47.1213 28.6809 47.1213 28.3136 47.4852Z" fill="black"/>
<path d="M21.2666 36.3833C21.2666 36.926 21.6997 37.3666 22.2332 37.3666H26.1C26.6335 37.3666 27.0666 36.926 27.0666 36.3833V30.4833C27.0666 29.9405 26.6335 29.5 26.1 29.5H22.2333C21.6998 29.5 21.2667 29.9405 21.2667 30.4833V36.3833H21.2666ZM23.2 31.4667H25.1333V35.4H23.2V31.4667Z" fill="black"/>
<path d="M19.3333 42.2833C19.3333 42.8261 19.7663 43.2666 20.2999 43.2666H23.1999V52.1166C23.1999 52.6593 23.633 53.0999 24.1665 53.0999C24.7001 53.0999 25.1331 52.6593 25.1331 52.1166V43.2666H32.8665V52.1166C32.8665 52.6593 33.2996 53.0999 33.8331 53.0999C34.3667 53.0999 34.7998 52.6593 34.7998 52.1166V43.2666H37.6998C38.2333 43.2666 38.6664 42.8261 38.6664 42.2833C38.6664 41.7405 38.2333 41.3 37.6998 41.3H20.2999C19.7663 41.3 19.3333 41.7405 19.3333 42.2833Z" fill="black"/>
<path d="M46.3999 36.3833C46.3999 36.926 46.833 37.3666 47.3665 37.3666H51.2332C51.7667 37.3666 52.1998 36.926 52.1998 36.3833V30.4833C52.1998 29.9405 51.7667 29.5 51.2332 29.5H47.3665C46.833 29.5 46.3999 29.9405 46.3999 30.4833V36.3833ZM48.3333 31.4667H50.2666V35.4H48.3333V31.4667Z" fill="black"/>
<path d="M41.5667 0H16.4334C15.8999 0 15.4668 0.440541 15.4668 0.983295V52.1166C15.4668 52.6593 15.8999 53.0999 16.4334 53.0999C16.967 53.0999 17.4001 52.6593 17.4001 52.1166V1.96659H40.6V52.1166C40.6 52.6593 41.0331 53.0999 41.5667 53.0999C42.1002 53.0999 42.5333 52.6593 42.5333 52.1166V0.983295C42.5334 0.440541 42.1003 0 41.5667 0Z" fill="black"/>
</svg>
    