<svg width="276" height="32" viewBox="0 0 276 32" fill="none" xmlns="http://www.w3.org/2000/svg">
<path d="M8.118 16.18C7.146 16.18 6.234 15.994 5.382 15.622C4.542 15.25 3.798 14.734 3.15 14.074C2.514 13.402 2.016 12.634 1.656 11.77C1.296 10.894 1.116 9.958 1.116 8.962C1.116 7.978 1.29 7.054 1.638 6.19C1.998 5.314 2.496 4.546 3.132 3.886C3.78 3.226 4.524 2.71 5.364 2.338C6.216 1.954 7.134 1.762 8.118 1.762C8.982 1.762 9.768 1.888 10.476 2.14C11.184 2.392 11.868 2.794 12.528 3.346C12.684 3.466 12.75 3.622 12.726 3.814C12.702 3.994 12.612 4.12 12.456 4.192C12.42 4.336 12.306 4.426 12.114 4.462C11.934 4.498 11.754 4.444 11.574 4.3C11.106 3.892 10.596 3.592 10.044 3.4C9.492 3.196 8.85 3.094 8.118 3.094C7.338 3.094 6.606 3.25 5.922 3.562C5.25 3.874 4.656 4.3 4.14 4.84C3.624 5.38 3.216 6.004 2.916 6.712C2.628 7.42 2.484 8.17 2.484 8.962C2.484 9.778 2.628 10.54 2.916 11.248C3.216 11.956 3.624 12.58 4.14 13.12C4.656 13.66 5.25 14.086 5.922 14.398C6.606 14.698 7.338 14.848 8.118 14.848C9.414 14.848 10.596 14.428 11.664 13.588C11.88 13.42 12.108 13.396 12.348 13.516C12.6 13.636 12.726 13.84 12.726 14.128C12.726 14.32 12.66 14.488 12.528 14.632C11.916 15.196 11.232 15.598 10.476 15.838C9.72 16.066 8.934 16.18 8.118 16.18ZM19.268 16.09C18.308 16.09 17.45 15.874 16.694 15.442C15.938 15.01 15.344 14.416 14.912 13.66C14.48 12.904 14.264 12.046 14.264 11.086C14.264 10.114 14.48 9.25 14.912 8.494C15.344 7.738 15.938 7.144 16.694 6.712C17.45 6.28 18.308 6.064 19.268 6.064C20.228 6.064 21.08 6.28 21.824 6.712C22.58 7.144 23.174 7.738 23.606 8.494C24.038 9.25 24.26 10.114 24.272 11.086C24.272 12.046 24.05 12.904 23.606 13.66C23.174 14.416 22.58 15.01 21.824 15.442C21.08 15.874 20.228 16.09 19.268 16.09ZM19.268 14.83C19.964 14.83 20.588 14.668 21.14 14.344C21.692 14.02 22.124 13.576 22.436 13.012C22.748 12.448 22.904 11.806 22.904 11.086C22.904 10.366 22.748 9.724 22.436 9.16C22.124 8.584 21.692 8.134 21.14 7.81C20.588 7.486 19.964 7.324 19.268 7.324C18.572 7.324 17.948 7.486 17.396 7.81C16.844 8.134 16.406 8.584 16.082 9.16C15.77 9.724 15.614 10.366 15.614 11.086C15.614 11.806 15.77 12.448 16.082 13.012C16.406 13.576 16.844 14.02 17.396 14.344C17.948 14.668 18.572 14.83 19.268 14.83ZM27.6697 16C27.4537 16 27.2797 15.94 27.1477 15.82C27.0277 15.688 26.9677 15.52 26.9677 15.316V6.856C26.9677 6.652 27.0277 6.484 27.1477 6.352C27.2797 6.22 27.4537 6.154 27.6697 6.154C27.8737 6.154 28.0357 6.22 28.1557 6.352C28.2877 6.484 28.3537 6.652 28.3537 6.856V7.252C28.6897 6.868 29.0857 6.574 29.5417 6.37C29.9977 6.154 30.5017 6.046 31.0537 6.046C31.7257 6.046 32.3197 6.196 32.8357 6.496C33.3637 6.796 33.7837 7.21 34.0957 7.738C34.4317 7.21 34.8817 6.796 35.4457 6.496C36.0097 6.196 36.6397 6.046 37.3357 6.046C38.0437 6.046 38.6677 6.214 39.2077 6.55C39.7597 6.886 40.1857 7.36 40.4857 7.972C40.7977 8.584 40.9537 9.304 40.9537 10.132V15.316C40.9537 15.52 40.8877 15.688 40.7557 15.82C40.6357 15.94 40.4737 16 40.2697 16C40.0657 16 39.8977 15.94 39.7657 15.82C39.6337 15.688 39.5677 15.52 39.5677 15.316V10.132C39.5677 9.28 39.3457 8.608 38.9017 8.116C38.4577 7.612 37.8877 7.36 37.1917 7.36C36.4477 7.36 35.8357 7.612 35.3557 8.116C34.8877 8.608 34.6597 9.268 34.6717 10.096V10.132V15.316C34.6717 15.52 34.6057 15.688 34.4737 15.82C34.3537 15.94 34.1917 16 33.9877 16C33.7837 16 33.6157 15.94 33.4837 15.82C33.3517 15.688 33.2857 15.52 33.2857 15.316V10.132C33.2857 9.28 33.0637 8.608 32.6197 8.116C32.1757 7.612 31.6057 7.36 30.9097 7.36C30.1657 7.36 29.5537 7.606 29.0737 8.098C28.5937 8.578 28.3537 9.208 28.3537 9.988V15.316C28.3537 15.52 28.2877 15.688 28.1557 15.82C28.0357 15.94 27.8737 16 27.6697 16ZM44.7204 16C44.5044 16 44.3304 15.94 44.1984 15.82C44.0784 15.688 44.0184 15.52 44.0184 15.316V6.856C44.0184 6.652 44.0784 6.484 44.1984 6.352C44.3304 6.22 44.5044 6.154 44.7204 6.154C44.9244 6.154 45.0864 6.22 45.2064 6.352C45.3384 6.484 45.4044 6.652 45.4044 6.856V7.252C45.7404 6.868 46.1364 6.574 46.5924 6.37C47.0484 6.154 47.5524 6.046 48.1044 6.046C48.7764 6.046 49.3704 6.196 49.8864 6.496C50.4144 6.796 50.8344 7.21 51.1464 7.738C51.4824 7.21 51.9324 6.796 52.4964 6.496C53.0604 6.196 53.6904 6.046 54.3864 6.046C55.0944 6.046 55.7184 6.214 56.2584 6.55C56.8104 6.886 57.2364 7.36 57.5364 7.972C57.8484 8.584 58.0044 9.304 58.0044 10.132V15.316C58.0044 15.52 57.9384 15.688 57.8064 15.82C57.6864 15.94 57.5244 16 57.3204 16C57.1164 16 56.9484 15.94 56.8164 15.82C56.6844 15.688 56.6184 15.52 56.6184 15.316V10.132C56.6184 9.28 56.3964 8.608 55.9524 8.116C55.5084 7.612 54.9384 7.36 54.2424 7.36C53.4984 7.36 52.8864 7.612 52.4064 8.116C51.9384 8.608 51.7104 9.268 51.7224 10.096V10.132V15.316C51.7224 15.52 51.6564 15.688 51.5244 15.82C51.4044 15.94 51.2424 16 51.0384 16C50.8344 16 50.6664 15.94 50.5344 15.82C50.4024 15.688 50.3364 15.52 50.3364 15.316V10.132C50.3364 9.28 50.1144 8.608 49.6704 8.116C49.2264 7.612 48.6564 7.36 47.9604 7.36C47.2164 7.36 46.6044 7.606 46.1244 8.098C45.6444 8.578 45.4044 9.208 45.4044 9.988V15.316C45.4044 15.52 45.3384 15.688 45.2064 15.82C45.0864 15.94 44.9244 16 44.7204 16ZM65.3532 16.108C64.5012 16.108 63.7392 15.934 63.0672 15.586C62.3952 15.226 61.8612 14.704 61.4652 14.02C61.0812 13.336 60.8892 12.502 60.8892 11.518V6.838C60.8892 6.646 60.9552 6.484 61.0872 6.352C61.2192 6.22 61.3812 6.154 61.5732 6.154C61.7772 6.154 61.9452 6.22 62.0772 6.352C62.2092 6.484 62.2752 6.646 62.2752 6.838V11.518C62.2752 12.622 62.5812 13.444 63.1932 13.984C63.8052 14.524 64.5732 14.794 65.4972 14.794C66.0852 14.794 66.6132 14.68 67.0812 14.452C67.5612 14.224 67.9392 13.912 68.2152 13.516C68.4912 13.12 68.6292 12.67 68.6292 12.166V6.838C68.6292 6.634 68.6892 6.472 68.8092 6.352C68.9412 6.22 69.1092 6.154 69.3132 6.154C69.5172 6.154 69.6852 6.22 69.8172 6.352C69.9492 6.472 70.0152 6.634 70.0152 6.838V15.298C70.0152 15.514 69.9492 15.688 69.8172 15.82C69.6852 15.94 69.5172 16 69.3132 16C69.1092 16 68.9412 15.94 68.8092 15.82C68.6892 15.688 68.6292 15.514 68.6292 15.298V14.686C68.2332 15.13 67.7532 15.478 67.1892 15.73C66.6252 15.982 66.0132 16.108 65.3532 16.108ZM73.9529 16C73.7369 16 73.5629 15.94 73.4309 15.82C73.3109 15.688 73.2509 15.52 73.2509 15.316V6.856C73.2509 6.64 73.3109 6.472 73.4309 6.352C73.5629 6.22 73.7369 6.154 73.9529 6.154C74.1569 6.154 74.3189 6.22 74.4389 6.352C74.5709 6.472 74.6369 6.64 74.6369 6.856V7.468C75.0209 7.024 75.4949 6.676 76.0589 6.424C76.6349 6.172 77.2529 6.046 77.9129 6.046C78.7649 6.046 79.5269 6.226 80.1989 6.586C80.8709 6.934 81.3989 7.45 81.7829 8.134C82.1789 8.818 82.3769 9.652 82.3769 10.636V15.316C82.3769 15.508 82.3109 15.67 82.1789 15.802C82.0469 15.934 81.8849 16 81.6929 16C81.4889 16 81.3209 15.934 81.1889 15.802C81.0569 15.67 80.9909 15.508 80.9909 15.316V10.636C80.9909 9.52 80.6789 8.698 80.0549 8.17C79.4429 7.63 78.6809 7.36 77.7689 7.36C77.1809 7.36 76.6469 7.474 76.1669 7.702C75.6989 7.93 75.3269 8.242 75.0509 8.638C74.7749 9.034 74.6369 9.484 74.6369 9.988V15.316C74.6369 15.52 74.5709 15.688 74.4389 15.82C74.3189 15.94 74.1569 16 73.9529 16ZM86.4225 16C86.2065 16 86.0325 15.94 85.9005 15.82C85.7805 15.688 85.7205 15.514 85.7205 15.298V6.856C85.7205 6.64 85.7805 6.472 85.9005 6.352C86.0325 6.22 86.2065 6.154 86.4225 6.154C86.6265 6.154 86.7885 6.22 86.9085 6.352C87.0405 6.472 87.1065 6.64 87.1065 6.856V15.298C87.1065 15.514 87.0405 15.688 86.9085 15.82C86.7885 15.94 86.6265 16 86.4225 16ZM86.4045 4.282C86.1405 4.282 85.9125 4.186 85.7205 3.994C85.5285 3.802 85.4325 3.568 85.4325 3.292C85.4325 2.992 85.5285 2.758 85.7205 2.59C85.9245 2.41 86.1585 2.32 86.4225 2.32C86.6745 2.32 86.8965 2.41 87.0885 2.59C87.2925 2.758 87.3945 2.992 87.3945 3.292C87.3945 3.568 87.2985 3.802 87.1065 3.994C86.9145 4.186 86.6805 4.282 86.4045 4.282ZM94.4876 16C93.8516 16 93.2816 15.85 92.7776 15.55C92.2856 15.25 91.8956 14.842 91.6076 14.326C91.3196 13.798 91.1756 13.198 91.1756 12.526V7.72H90.0056C89.8256 7.72 89.6756 7.666 89.5556 7.558C89.4356 7.438 89.3756 7.294 89.3756 7.126C89.3756 6.946 89.4356 6.802 89.5556 6.694C89.6756 6.574 89.8256 6.514 90.0056 6.514H91.1756V3.724C91.1756 3.52 91.2356 3.352 91.3556 3.22C91.4876 3.088 91.6556 3.022 91.8596 3.022C92.0636 3.022 92.2316 3.088 92.3636 3.22C92.4956 3.352 92.5616 3.52 92.5616 3.724V6.514H94.5956C94.7756 6.514 94.9256 6.574 95.0456 6.694C95.1656 6.802 95.2256 6.946 95.2256 7.126C95.2256 7.294 95.1656 7.438 95.0456 7.558C94.9256 7.666 94.7756 7.72 94.5956 7.72H92.5616V12.526C92.5616 13.138 92.7416 13.642 93.1016 14.038C93.4616 14.422 93.9236 14.614 94.4876 14.614H94.9736C95.1656 14.614 95.3216 14.68 95.4416 14.812C95.5616 14.944 95.6216 15.112 95.6216 15.316C95.6216 15.52 95.5496 15.688 95.4056 15.82C95.2616 15.94 95.0816 16 94.8656 16H94.4876ZM99.5698 20.284C99.4738 20.284 99.3658 20.26 99.2458 20.212C98.8378 20.032 98.7238 19.744 98.9038 19.348L100.704 15.406L100.686 15.388L96.6718 7.072C96.5878 6.892 96.5758 6.724 96.6358 6.568C96.6958 6.412 96.8158 6.292 96.9958 6.208C97.3918 6.028 97.6798 6.13 97.8598 6.514L101.37 13.912L104.718 6.532C104.898 6.148 105.186 6.04 105.582 6.208C105.99 6.376 106.104 6.658 105.924 7.054L100.092 19.87C99.9718 20.146 99.7978 20.284 99.5698 20.284ZM117.513 16.18C116.361 16.18 115.341 15.934 114.453 15.442C113.577 14.95 112.953 14.296 112.581 13.48C112.485 13.288 112.479 13.114 112.563 12.958C112.659 12.79 112.815 12.676 113.031 12.616C113.199 12.568 113.361 12.586 113.517 12.67C113.685 12.754 113.811 12.88 113.895 13.048C114.171 13.576 114.627 14.008 115.263 14.344C115.899 14.68 116.649 14.848 117.513 14.848C118.461 14.848 119.241 14.62 119.853 14.164C120.477 13.696 120.789 13.024 120.789 12.148C120.789 11.416 120.519 10.786 119.979 10.258C119.439 9.73 118.593 9.394 117.441 9.25C116.037 9.082 114.939 8.65 114.147 7.954C113.355 7.246 112.959 6.382 112.959 5.362C112.959 4.63 113.151 3.994 113.535 3.454C113.931 2.914 114.471 2.5 115.155 2.212C115.839 1.912 116.625 1.762 117.513 1.762C118.509 1.762 119.361 1.99 120.069 2.446C120.777 2.89 121.323 3.418 121.707 4.03C121.827 4.222 121.863 4.408 121.815 4.588C121.779 4.768 121.677 4.906 121.509 5.002C121.329 5.086 121.143 5.098 120.951 5.038C120.771 4.978 120.633 4.864 120.537 4.696C120.261 4.276 119.883 3.91 119.403 3.598C118.935 3.274 118.299 3.106 117.495 3.094C116.547 3.094 115.785 3.298 115.209 3.706C114.633 4.102 114.345 4.684 114.345 5.452C114.345 6.064 114.591 6.598 115.083 7.054C115.587 7.51 116.475 7.828 117.747 8.008C119.247 8.224 120.357 8.686 121.077 9.394C121.809 10.09 122.175 11.002 122.175 12.13C122.175 12.994 121.965 13.732 121.545 14.344C121.137 14.944 120.579 15.4 119.871 15.712C119.163 16.024 118.377 16.18 117.513 16.18ZM129.395 16.09C128.423 16.09 127.559 15.88 126.803 15.46C126.059 15.028 125.471 14.434 125.039 13.678C124.619 12.922 124.409 12.058 124.409 11.086C124.409 10.102 124.607 9.238 125.003 8.494C125.411 7.738 125.969 7.144 126.677 6.712C127.385 6.28 128.201 6.064 129.125 6.064C130.037 6.064 130.829 6.274 131.501 6.694C132.185 7.102 132.713 7.672 133.085 8.404C133.457 9.136 133.643 9.97 133.643 10.906C133.643 11.098 133.583 11.254 133.463 11.374C133.343 11.482 133.187 11.536 132.995 11.536H125.723C125.795 12.184 125.993 12.76 126.317 13.264C126.641 13.756 127.067 14.146 127.595 14.434C128.123 14.71 128.723 14.848 129.395 14.848C129.827 14.848 130.259 14.776 130.691 14.632C131.135 14.476 131.489 14.284 131.753 14.056C131.885 13.948 132.035 13.894 132.203 13.894C132.371 13.882 132.515 13.924 132.635 14.02C132.791 14.164 132.869 14.32 132.869 14.488C132.881 14.656 132.815 14.8 132.671 14.92C132.275 15.256 131.771 15.538 131.159 15.766C130.547 15.982 129.959 16.09 129.395 16.09ZM129.125 7.306C128.201 7.306 127.439 7.594 126.839 8.17C126.239 8.734 125.879 9.472 125.759 10.384H132.347C132.251 9.472 131.915 8.734 131.339 8.17C130.775 7.594 130.037 7.306 129.125 7.306ZM136.671 16C136.215 16 135.987 15.772 135.987 15.316V6.838C135.987 6.382 136.215 6.154 136.671 6.154C137.127 6.154 137.355 6.382 137.355 6.838V7.612C137.715 7.132 138.159 6.754 138.687 6.478C139.215 6.19 139.797 6.046 140.433 6.046C140.985 6.046 141.411 6.124 141.711 6.28C142.011 6.436 142.125 6.664 142.053 6.964C141.993 7.24 141.849 7.384 141.621 7.396C141.405 7.396 141.147 7.384 140.847 7.36C140.175 7.3 139.575 7.372 139.047 7.576C138.531 7.768 138.117 8.068 137.805 8.476C137.505 8.884 137.355 9.37 137.355 9.934V15.316C137.355 15.772 137.127 16 136.671 16ZM147.597 16C147.309 16 147.093 15.844 146.949 15.532L142.953 7.054C142.881 6.898 142.875 6.742 142.935 6.586C142.995 6.43 143.115 6.31 143.295 6.226C143.463 6.142 143.625 6.13 143.781 6.19C143.937 6.25 144.057 6.358 144.141 6.514L147.597 14.002L151.017 6.514C151.089 6.346 151.209 6.238 151.377 6.19C151.557 6.13 151.731 6.136 151.899 6.208C152.067 6.292 152.181 6.418 152.241 6.586C152.301 6.742 152.295 6.892 152.223 7.036L148.281 15.532C148.137 15.844 147.909 16 147.597 16ZM155.171 16C154.955 16 154.781 15.94 154.649 15.82C154.529 15.688 154.469 15.514 154.469 15.298V6.856C154.469 6.64 154.529 6.472 154.649 6.352C154.781 6.22 154.955 6.154 155.171 6.154C155.375 6.154 155.537 6.22 155.657 6.352C155.789 6.472 155.855 6.64 155.855 6.856V15.298C155.855 15.514 155.789 15.688 155.657 15.82C155.537 15.94 155.375 16 155.171 16ZM155.153 4.282C154.889 4.282 154.661 4.186 154.469 3.994C154.277 3.802 154.181 3.568 154.181 3.292C154.181 2.992 154.277 2.758 154.469 2.59C154.673 2.41 154.907 2.32 155.171 2.32C155.423 2.32 155.645 2.41 155.837 2.59C156.041 2.758 156.143 2.992 156.143 3.292C156.143 3.568 156.047 3.802 155.855 3.994C155.663 4.186 155.429 4.282 155.153 4.282ZM163.776 16.09C162.828 16.09 161.982 15.874 161.238 15.442C160.506 14.998 159.924 14.398 159.492 13.642C159.072 12.886 158.862 12.034 158.862 11.086C158.862 10.126 159.066 9.268 159.474 8.512C159.882 7.756 160.44 7.162 161.148 6.73C161.856 6.286 162.672 6.064 163.596 6.064C165.096 6.064 166.314 6.64 167.25 7.792C167.382 7.936 167.43 8.092 167.394 8.26C167.358 8.416 167.256 8.554 167.088 8.674C166.956 8.77 166.806 8.806 166.638 8.782C166.482 8.746 166.344 8.656 166.224 8.512C165.528 7.72 164.652 7.324 163.596 7.324C162.924 7.324 162.33 7.486 161.814 7.81C161.31 8.134 160.914 8.578 160.626 9.142C160.35 9.706 160.212 10.354 160.212 11.086C160.212 11.806 160.362 12.448 160.662 13.012C160.962 13.576 161.382 14.02 161.922 14.344C162.462 14.668 163.08 14.83 163.776 14.83C164.736 14.83 165.51 14.572 166.098 14.056C166.242 13.936 166.392 13.87 166.548 13.858C166.704 13.846 166.848 13.894 166.98 14.002C167.124 14.134 167.202 14.284 167.214 14.452C167.238 14.62 167.184 14.764 167.052 14.884C166.176 15.688 165.084 16.09 163.776 16.09ZM174.57 16.09C173.598 16.09 172.734 15.88 171.978 15.46C171.234 15.028 170.646 14.434 170.214 13.678C169.794 12.922 169.584 12.058 169.584 11.086C169.584 10.102 169.782 9.238 170.178 8.494C170.586 7.738 171.144 7.144 171.852 6.712C172.56 6.28 173.376 6.064 174.3 6.064C175.212 6.064 176.004 6.274 176.676 6.694C177.36 7.102 177.888 7.672 178.26 8.404C178.632 9.136 178.818 9.97 178.818 10.906C178.818 11.098 178.758 11.254 178.638 11.374C178.518 11.482 178.362 11.536 178.17 11.536H170.898C170.97 12.184 171.168 12.76 171.492 13.264C171.816 13.756 172.242 14.146 172.77 14.434C173.298 14.71 173.898 14.848 174.57 14.848C175.002 14.848 175.434 14.776 175.866 14.632C176.31 14.476 176.664 14.284 176.928 14.056C177.06 13.948 177.21 13.894 177.378 13.894C177.546 13.882 177.69 13.924 177.81 14.02C177.966 14.164 178.044 14.32 178.044 14.488C178.056 14.656 177.99 14.8 177.846 14.92C177.45 15.256 176.946 15.538 176.334 15.766C175.722 15.982 175.134 16.09 174.57 16.09ZM174.3 7.306C173.376 7.306 172.614 7.594 172.014 8.17C171.414 8.734 171.054 9.472 170.934 10.384H177.522C177.426 9.472 177.09 8.734 176.514 8.17C175.95 7.594 175.212 7.306 174.3 7.306Z" fill="black"/>
<path d="M184.67 29.05C184.15 29.05 183.68 28.93 183.26 28.69C182.847 28.45 182.517 28.1233 182.27 27.71C182.03 27.29 181.907 26.82 181.9 26.3V21.58C181.9 21.46 181.933 21.3667 182 21.3C182.073 21.2267 182.17 21.19 182.29 21.19C182.403 21.19 182.493 21.2267 182.56 21.3C182.633 21.3667 182.67 21.46 182.67 21.58V24.52C182.89 24.2067 183.18 23.9567 183.54 23.77C183.907 23.5767 184.313 23.48 184.76 23.48C185.273 23.48 185.733 23.6033 186.14 23.85C186.547 24.09 186.867 24.42 187.1 24.84C187.34 25.26 187.46 25.7333 187.46 26.26C187.46 26.7933 187.337 27.27 187.09 27.69C186.85 28.11 186.52 28.4433 186.1 28.69C185.68 28.93 185.203 29.05 184.67 29.05ZM184.67 28.35C185.057 28.35 185.403 28.26 185.71 28.08C186.017 27.8933 186.257 27.6433 186.43 27.33C186.61 27.0167 186.7 26.66 186.7 26.26C186.7 25.8667 186.61 25.5133 186.43 25.2C186.257 24.88 186.017 24.63 185.71 24.45C185.403 24.27 185.057 24.18 184.67 24.18C184.29 24.18 183.947 24.27 183.64 24.45C183.333 24.63 183.093 24.88 182.92 25.2C182.747 25.5133 182.66 25.8667 182.66 26.26C182.66 26.66 182.747 27.0167 182.92 27.33C183.093 27.6433 183.333 27.8933 183.64 28.08C183.947 28.26 184.29 28.35 184.67 28.35ZM189.608 31.38C189.554 31.38 189.494 31.3667 189.428 31.34C189.201 31.24 189.138 31.08 189.238 30.86L190.238 28.67L190.228 28.66L187.998 24.04C187.951 23.94 187.944 23.8467 187.978 23.76C188.011 23.6733 188.078 23.6067 188.178 23.56C188.398 23.46 188.558 23.5167 188.658 23.73L190.608 27.84L192.468 23.74C192.568 23.5267 192.728 23.4667 192.948 23.56C193.174 23.6533 193.238 23.81 193.138 24.03L189.898 31.15C189.831 31.3033 189.734 31.38 189.608 31.38ZM196.746 29C196.592 29 196.482 28.9367 196.416 28.81C196.349 28.6833 196.342 28.56 196.396 28.44L199.336 21.46C199.409 21.28 199.536 21.19 199.716 21.19C199.889 21.19 200.012 21.28 200.086 21.46L203.036 28.45C203.096 28.5767 203.086 28.7 203.006 28.82C202.932 28.94 202.826 29 202.686 29C202.506 29 202.382 28.92 202.316 28.76L201.656 27.14H197.776L197.106 28.76C197.072 28.84 197.022 28.9 196.956 28.94C196.896 28.98 196.826 29 196.746 29ZM198.056 26.47H201.376L199.716 22.46L198.056 26.47ZM207.522 29.1C206.982 29.1 206.475 28.9967 206.002 28.79C205.535 28.5833 205.122 28.2967 204.762 27.93C204.408 27.5567 204.132 27.13 203.932 26.65C203.732 26.1633 203.632 25.6433 203.632 25.09C203.632 24.5433 203.728 24.03 203.922 23.55C204.122 23.0633 204.398 22.6367 204.752 22.27C205.112 21.9033 205.525 21.6167 205.992 21.41C206.465 21.1967 206.975 21.09 207.522 21.09C208.002 21.09 208.438 21.16 208.832 21.3C209.225 21.44 209.605 21.6633 209.972 21.97C210.058 22.0367 210.095 22.1233 210.082 22.23C210.068 22.33 210.018 22.4 209.932 22.44C209.912 22.52 209.848 22.57 209.742 22.59C209.642 22.61 209.542 22.58 209.442 22.5C209.182 22.2733 208.898 22.1067 208.592 22C208.285 21.8867 207.928 21.83 207.522 21.83C207.088 21.83 206.682 21.9167 206.302 22.09C205.928 22.2633 205.598 22.5 205.312 22.8C205.025 23.1 204.798 23.4467 204.632 23.84C204.472 24.2333 204.392 24.65 204.392 25.09C204.392 25.5433 204.472 25.9667 204.632 26.36C204.798 26.7533 205.025 27.1 205.312 27.4C205.598 27.7 205.928 27.9367 206.302 28.11C206.682 28.2767 207.088 28.36 207.522 28.36C208.242 28.36 208.898 28.1267 209.492 27.66C209.612 27.5667 209.738 27.5533 209.872 27.62C210.012 27.6867 210.082 27.8 210.082 27.96C210.082 28.0667 210.045 28.16 209.972 28.24C209.632 28.5533 209.252 28.7767 208.832 28.91C208.412 29.0367 207.975 29.1 207.522 29.1ZM212.117 29C212.01 29 211.917 28.9633 211.837 28.89C211.763 28.81 211.727 28.7167 211.727 28.61V21.58C211.727 21.4667 211.763 21.3733 211.837 21.3C211.917 21.2267 212.01 21.19 212.117 21.19C212.277 21.19 212.393 21.2567 212.467 21.39L215.667 27.75L218.807 21.39C218.887 21.2567 219.003 21.19 219.157 21.19C219.263 21.19 219.353 21.2267 219.427 21.3C219.5 21.3733 219.537 21.4667 219.537 21.58V28.61C219.537 28.7167 219.5 28.81 219.427 28.89C219.353 28.9633 219.263 29 219.157 29C219.043 29 218.947 28.9633 218.867 28.89C218.793 28.81 218.757 28.7167 218.757 28.61V22.95L215.977 28.63C215.903 28.7567 215.79 28.82 215.637 28.82C215.47 28.82 215.35 28.74 215.277 28.58L212.507 23.04V28.61C212.507 28.7167 212.467 28.81 212.387 28.89C212.313 28.9633 212.223 29 212.117 29ZM226.271 29.1C225.824 29.1 225.424 28.9967 225.071 28.79C224.717 28.5833 224.437 28.3033 224.231 27.95C224.024 27.5967 223.921 27.2 223.921 26.76C223.921 26.6467 223.957 26.5533 224.031 26.48C224.104 26.4067 224.197 26.37 224.311 26.37C224.424 26.37 224.517 26.4067 224.591 26.48C224.664 26.5533 224.701 26.6467 224.701 26.76C224.701 27.06 224.771 27.3333 224.911 27.58C225.051 27.82 225.237 28.01 225.471 28.15C225.711 28.29 225.977 28.36 226.271 28.36C226.564 28.36 226.827 28.29 227.061 28.15C227.301 28.0033 227.487 27.81 227.621 27.57C227.761 27.33 227.831 27.06 227.831 26.76V21.58C227.831 21.4667 227.867 21.3733 227.941 21.3C228.014 21.2267 228.107 21.19 228.221 21.19C228.334 21.19 228.427 21.2267 228.501 21.3C228.574 21.3733 228.611 21.4667 228.611 21.58V26.76C228.611 27.2 228.507 27.5967 228.301 27.95C228.094 28.3033 227.814 28.5833 227.461 28.79C227.107 28.9967 226.711 29.1 226.271 29.1ZM232.923 29.05C232.41 29.05 231.95 28.93 231.543 28.69C231.137 28.4433 230.813 28.11 230.573 27.69C230.34 27.27 230.223 26.7967 230.223 26.27C230.223 25.7367 230.343 25.26 230.583 24.84C230.83 24.42 231.163 24.09 231.583 23.85C232.003 23.6033 232.477 23.48 233.003 23.48C233.53 23.48 234 23.6033 234.413 23.85C234.833 24.09 235.163 24.42 235.403 24.84C235.65 25.26 235.777 25.7367 235.783 26.27V28.62C235.783 28.7333 235.747 28.8267 235.673 28.9C235.6 28.9667 235.507 29 235.393 29C235.28 29 235.187 28.9667 235.113 28.9C235.04 28.8267 235.003 28.7333 235.003 28.62V28.01C234.777 28.33 234.483 28.5833 234.123 28.77C233.763 28.9567 233.363 29.05 232.923 29.05ZM233.003 28.35C233.39 28.35 233.733 28.26 234.033 28.08C234.34 27.9 234.58 27.6533 234.753 27.34C234.933 27.02 235.023 26.6633 235.023 26.27C235.023 25.87 234.933 25.5133 234.753 25.2C234.58 24.8867 234.34 24.64 234.033 24.46C233.733 24.2733 233.39 24.18 233.003 24.18C232.623 24.18 232.28 24.2733 231.973 24.46C231.667 24.64 231.423 24.8867 231.243 25.2C231.063 25.5133 230.973 25.87 230.973 26.27C230.973 26.6633 231.063 27.02 231.243 27.34C231.423 27.6533 231.667 27.9 231.973 28.08C232.28 28.26 232.623 28.35 233.003 28.35ZM238.848 29C238.688 29 238.568 28.9133 238.488 28.74L236.268 24.03C236.228 23.9433 236.225 23.8567 236.258 23.77C236.291 23.6833 236.358 23.6167 236.458 23.57C236.551 23.5233 236.641 23.5167 236.728 23.55C236.815 23.5833 236.881 23.6433 236.928 23.73L238.848 27.89L240.748 23.73C240.788 23.6367 240.855 23.5767 240.948 23.55C241.048 23.5167 241.145 23.52 241.238 23.56C241.331 23.6067 241.395 23.6767 241.428 23.77C241.461 23.8567 241.458 23.94 241.418 24.02L239.228 28.74C239.148 28.9133 239.021 29 238.848 29ZM244.79 29.05C244.25 29.05 243.77 28.9333 243.35 28.7C242.937 28.46 242.61 28.13 242.37 27.71C242.137 27.29 242.02 26.81 242.02 26.27C242.02 25.7233 242.13 25.2433 242.35 24.83C242.577 24.41 242.887 24.08 243.28 23.84C243.673 23.6 244.127 23.48 244.64 23.48C245.147 23.48 245.587 23.5967 245.96 23.83C246.34 24.0567 246.633 24.3733 246.84 24.78C247.047 25.1867 247.15 25.65 247.15 26.17C247.15 26.2767 247.117 26.3633 247.05 26.43C246.983 26.49 246.897 26.52 246.79 26.52H242.75C242.79 26.88 242.9 27.2 243.08 27.48C243.26 27.7533 243.497 27.97 243.79 28.13C244.083 28.2833 244.417 28.36 244.79 28.36C245.03 28.36 245.27 28.32 245.51 28.24C245.757 28.1533 245.953 28.0467 246.1 27.92C246.173 27.86 246.257 27.83 246.35 27.83C246.443 27.8233 246.523 27.8467 246.59 27.9C246.677 27.98 246.72 28.0667 246.72 28.16C246.727 28.2533 246.69 28.3333 246.61 28.4C246.39 28.5867 246.11 28.7433 245.77 28.87C245.43 28.99 245.103 29.05 244.79 29.05ZM244.64 24.17C244.127 24.17 243.703 24.33 243.37 24.65C243.037 24.9633 242.837 25.3733 242.77 25.88H246.43C246.377 25.3733 246.19 24.9633 245.87 24.65C245.557 24.33 245.147 24.17 244.64 24.17ZM248.833 29C248.579 29 248.453 28.8733 248.453 28.62V23.91C248.453 23.6567 248.579 23.53 248.833 23.53C249.086 23.53 249.213 23.6567 249.213 23.91V24.34C249.413 24.0733 249.659 23.8633 249.953 23.71C250.246 23.55 250.569 23.47 250.923 23.47C251.229 23.47 251.466 23.5133 251.633 23.6C251.799 23.6867 251.863 23.8133 251.823 23.98C251.789 24.1333 251.709 24.2133 251.583 24.22C251.463 24.22 251.319 24.2133 251.153 24.2C250.779 24.1667 250.446 24.2067 250.153 24.32C249.866 24.4267 249.636 24.5933 249.463 24.82C249.296 25.0467 249.213 25.3167 249.213 25.63V28.62C249.213 28.8733 249.086 29 248.833 29ZM253.583 29C253.463 29 253.366 28.9667 253.293 28.9C253.226 28.8267 253.193 28.73 253.193 28.61V23.92C253.193 23.8 253.226 23.7067 253.293 23.64C253.366 23.5667 253.463 23.53 253.583 23.53C253.696 23.53 253.786 23.5667 253.853 23.64C253.926 23.7067 253.963 23.8 253.963 23.92V28.61C253.963 28.73 253.926 28.8267 253.853 28.9C253.786 28.9667 253.696 29 253.583 29ZM253.573 22.49C253.426 22.49 253.299 22.4367 253.193 22.33C253.086 22.2233 253.033 22.0933 253.033 21.94C253.033 21.7733 253.086 21.6433 253.193 21.55C253.306 21.45 253.436 21.4 253.583 21.4C253.723 21.4 253.846 21.45 253.953 21.55C254.066 21.6433 254.123 21.7733 254.123 21.94C254.123 22.0933 254.069 22.2233 253.963 22.33C253.856 22.4367 253.726 22.49 253.573 22.49ZM258.333 29.05C257.82 29.05 257.36 28.93 256.953 28.69C256.547 28.4433 256.223 28.11 255.983 27.69C255.75 27.27 255.633 26.7967 255.633 26.27C255.633 25.7367 255.753 25.26 255.993 24.84C256.24 24.42 256.573 24.09 256.993 23.85C257.413 23.6033 257.887 23.48 258.413 23.48C258.94 23.48 259.41 23.6033 259.823 23.85C260.243 24.09 260.573 24.42 260.813 24.84C261.06 25.26 261.187 25.7367 261.193 26.27V28.62C261.193 28.7333 261.157 28.8267 261.083 28.9C261.01 28.9667 260.917 29 260.803 29C260.69 29 260.597 28.9667 260.523 28.9C260.45 28.8267 260.413 28.7333 260.413 28.62V28.01C260.187 28.33 259.893 28.5833 259.533 28.77C259.173 28.9567 258.773 29.05 258.333 29.05ZM258.413 28.35C258.8 28.35 259.143 28.26 259.443 28.08C259.75 27.9 259.99 27.6533 260.163 27.34C260.343 27.02 260.433 26.6633 260.433 26.27C260.433 25.87 260.343 25.5133 260.163 25.2C259.99 24.8867 259.75 24.64 259.443 24.46C259.143 24.2733 258.8 24.18 258.413 24.18C258.033 24.18 257.69 24.2733 257.383 24.46C257.077 24.64 256.833 24.8867 256.653 25.2C256.473 25.5133 256.383 25.87 256.383 26.27C256.383 26.6633 256.473 27.02 256.653 27.34C256.833 27.6533 257.077 27.9 257.383 28.08C257.69 28.26 258.033 28.35 258.413 28.35ZM263.081 29C262.961 29 262.864 28.9667 262.791 28.9C262.724 28.8267 262.691 28.7333 262.691 28.62V23.92C262.691 23.8 262.724 23.7067 262.791 23.64C262.864 23.5667 262.961 23.53 263.081 23.53C263.194 23.53 263.284 23.5667 263.351 23.64C263.424 23.7067 263.461 23.8 263.461 23.92V24.26C263.674 24.0133 263.938 23.82 264.251 23.68C264.571 23.54 264.914 23.47 265.281 23.47C265.754 23.47 266.178 23.57 266.551 23.77C266.924 23.9633 267.218 24.25 267.431 24.63C267.651 25.01 267.761 25.4733 267.761 26.02V28.62C267.761 28.7267 267.724 28.8167 267.651 28.89C267.578 28.9633 267.488 29 267.381 29C267.268 29 267.174 28.9633 267.101 28.89C267.028 28.8167 266.991 28.7267 266.991 28.62V26.02C266.991 25.4 266.818 24.9433 266.471 24.65C266.131 24.35 265.708 24.2 265.201 24.2C264.874 24.2 264.578 24.2633 264.311 24.39C264.051 24.5167 263.844 24.69 263.691 24.91C263.538 25.13 263.461 25.38 263.461 25.66V28.62C263.461 28.7333 263.424 28.8267 263.351 28.9C263.284 28.9667 263.194 29 263.081 29ZM271.869 29.05C271.355 29.05 270.895 28.93 270.489 28.69C270.082 28.4433 269.759 28.11 269.519 27.69C269.285 27.27 269.169 26.7967 269.169 26.27C269.169 25.7367 269.289 25.26 269.529 24.84C269.775 24.42 270.109 24.09 270.529 23.85C270.949 23.6033 271.422 23.48 271.949 23.48C272.475 23.48 272.945 23.6033 273.359 23.85C273.779 24.09 274.109 24.42 274.349 24.84C274.595 25.26 274.722 25.7367 274.729 26.27V28.62C274.729 28.7333 274.692 28.8267 274.619 28.9C274.545 28.9667 274.452 29 274.339 29C274.225 29 274.132 28.9667 274.059 28.9C273.985 28.8267 273.949 28.7333 273.949 28.62V28.01C273.722 28.33 273.429 28.5833 273.069 28.77C272.709 28.9567 272.309 29.05 271.869 29.05ZM271.949 28.35C272.335 28.35 272.679 28.26 272.979 28.08C273.285 27.9 273.525 27.6533 273.699 27.34C273.879 27.02 273.969 26.6633 273.969 26.27C273.969 25.87 273.879 25.5133 273.699 25.2C273.525 24.8867 273.285 24.64 272.979 24.46C272.679 24.2733 272.335 24.18 271.949 24.18C271.569 24.18 271.225 24.2733 270.919 24.46C270.612 24.64 270.369 24.8867 270.189 25.2C270.009 25.5133 269.919 25.87 269.919 26.27C269.919 26.6633 270.009 27.02 270.189 27.34C270.369 27.6533 270.612 27.9 270.919 28.08C271.225 28.26 271.569 28.35 271.949 28.35Z" fill="#0D91CF"/>
</svg>
