<svg width="143" height="145" viewBox="0 0 143 145" fill="none" xmlns="http://www.w3.org/2000/svg">
<g clip-path="url(#clip0)" filter="url(#filter0_d)">
<circle cx="73.6493" cy="71.5746" r="65.3507" fill="white"/>
<path d="M119.572 66.9614H115.07C111.567 57.669 103.964 49.8911 94.0255 45.1005V32.2114C94.0255 32.2114 85.4286 31.2281 80.7597 40.82C77.5697 40.2416 74.258 39.9336 70.8593 39.9336C53.0196 39.9336 37.5372 48.3373 29.7944 60.6516C29.1949 60.435 28.6805 60.1195 28.2518 59.6955C26.6428 58.1061 26.6316 55.4745 26.632 55.408C26.6484 54.2502 25.7264 53.2949 24.5676 53.2725C23.3939 53.2407 22.4438 54.1734 22.4204 55.3364C22.411 55.7867 22.4148 59.8162 25.2551 62.6566C25.9806 63.3825 26.8188 63.9446 27.7525 64.3621C25.6703 68.7525 24.526 73.537 24.526 78.5447C24.526 89.9792 30.4927 100.251 39.9704 107.321V120.354C39.9704 122.853 41.996 124.878 44.4947 124.878H50.8911C53.3898 124.878 55.4153 122.853 55.4153 120.354V114.956C60.2466 116.379 65.4439 117.156 70.8598 117.156C76.2756 117.156 81.4729 116.379 86.3042 114.956V120.354C86.3042 122.853 88.3298 124.878 90.8285 124.878H97.2249C99.7236 124.878 101.749 122.853 101.749 120.354V107.321C107.882 102.746 112.544 96.8319 115.071 90.1281H119.573C122.524 90.1281 124.916 87.736 124.916 84.7848V72.3042C124.915 69.3534 122.523 66.9614 119.572 66.9614Z" fill="#DA768E"/>
<path d="M97.887 70.8225C100.019 70.8225 101.748 69.0938 101.748 66.9614C101.748 64.829 100.019 63.1003 97.887 63.1003C95.7546 63.1003 94.0259 64.829 94.0259 66.9614C94.0259 69.0938 95.7546 70.8225 97.887 70.8225Z" fill="#595155"/>
<path d="M76.0076 51.166H62.9032C61.7402 51.166 60.7971 50.2229 60.7971 49.0599C60.7971 47.8969 61.7402 46.9538 62.9032 46.9538H76.0076C77.1706 46.9538 78.1136 47.8969 78.1136 49.0599C78.1136 50.2229 77.1706 51.166 76.0076 51.166Z" fill="#5E345E"/>
<path d="M70.8594 36.4235C77.4505 36.4235 82.7937 31.0803 82.7937 24.4892C82.7937 17.898 77.4505 12.5548 70.8594 12.5548C64.2682 12.5548 58.925 17.898 58.925 24.4892C58.925 31.0803 64.2682 36.4235 70.8594 36.4235Z" fill="#FFCD02"/>
<path d="M70.8595 33.4399C75.8028 33.4399 79.8102 29.4325 79.8102 24.4892C79.8102 19.5458 75.8028 15.5384 70.8595 15.5384C65.9161 15.5384 61.9087 19.5458 61.9087 24.4892C61.9087 29.4325 65.9161 33.4399 70.8595 33.4399Z" fill="#F9B65F"/>
</g>
<defs>
<filter id="filter0_d" x="-4" y="0" width="147" height="147" filterUnits="userSpaceOnUse" color-interpolation-filters="sRGB">
<feFlood flood-opacity="0" result="BackgroundImageFix"/>
<feColorMatrix in="SourceAlpha" type="matrix" values="0 0 0 0 0 0 0 0 0 0 0 0 0 0 0 0 0 0 127 0"/>
<feOffset dy="4"/>
<feGaussianBlur stdDeviation="2"/>
<feColorMatrix type="matrix" values="0 0 0 0 0 0 0 0 0 0 0 0 0 0 0 0 0 0 0.25 0"/>
<feBlend mode="normal" in2="BackgroundImageFix" result="effect1_dropShadow"/>
<feBlend mode="normal" in="SourceGraphic" in2="effect1_dropShadow" result="shape"/>
</filter>
<clipPath id="clip0">
<rect width="139" height="139" fill="white"/>
</clipPath>
</defs>
</svg>
