<svg width="482" height="500" viewBox="0 0 482 500" fill="none" xmlns="http://www.w3.org/2000/svg">
<g clip-path="url(#clip0)">
<path opacity="0.4" d="M297 395.44L237 360.79C232.67 358.29 233.22 353.93 238.21 351.04L277.1 328.59L352.79 372.29L313.9 394.74C308.9 397.63 301.34 397.94 297 395.44Z" fill="#D6D8E5"/>
<path d="M301.4 392.87L241.4 358.21C237.08 355.71 237.62 351.35 242.62 348.46L281.47 326L357.16 369.7L318.28 392.16C313.28 395.05 305.72 395.36 301.4 392.87Z" fill="#B1B4C4"/>
<path d="M357.17 369.71V367.42L353.67 369.44L357.17 369.71Z" fill="#B1B4C4"/>
<path d="M238.45 354.08V351.75L242.04 353.24L238.45 354.08Z" fill="#B1B4C4"/>
<path d="M301.4 390.57L241.4 355.92C237.08 353.42 237.62 349.06 242.62 346.17L281.5 323.72L357.19 367.42L318.31 389.87C313.28 392.76 305.72 393.07 301.4 390.57Z" fill="#D6D8E5"/>
<path d="M281.67 323.82L272.31 292.74L348.83 336.63L357.17 367.42L281.67 323.82Z" fill="#9EA1AF"/>
<path d="M355 368.7L357.21 367.42L353.92 364.79L355 368.7Z" fill="#9EA1AF"/>
<path d="M279.26 324.99L269.89 293.91L346.42 337.8L354.95 368.7L279.26 324.99Z" fill="#B1B4C4"/>
<path d="M473.51 421.08L177.31 250.08C173.16 247.68 169.79 241.24 169.79 235.7V6.59C169.79 1.05 173.16 -1.5 177.31 0.899996L473.51 171.9C477.66 174.3 481.03 180.73 481.03 186.27V415.4C481 420.94 477.66 423.48 473.51 421.08Z" fill="#C4C7D6"/>
<path d="M475.03 423.45L478.31 421.55L476.89 411.82L475.03 423.45Z" fill="#C4C7D6"/>
<path d="M169.26 2.31L172.49 0.449997L177.13 3.1C177.13 3.1 172.19 3.85 172.07 3.82C171.95 3.79 169.26 2.31 169.26 2.31Z" fill="#B1B4C4"/>
<path d="M470.79 422.65L174.6 251.65C170.44 249.26 167.08 242.82 167.08 237.28V8.16C167.08 2.62 170.44 0.070003 174.6 2.47L470.79 173.47C474.95 175.87 478.31 182.3 478.31 187.84V417C478.31 422.5 475 425.05 470.79 422.65Z" fill="#E4E7F2"/>
<path d="M470.27 423L174.08 252C169.92 249.6 166.55 243.17 166.55 237.63V8.45999C166.55 2.91999 169.92 0.369991 174.08 2.76999L470.27 173.77C474.42 176.16 477.79 182.6 477.79 188.14V417.26C477.79 422.8 474.42 425.35 470.27 423Z" fill="#D6D8E5"/>
<path d="M473.72 409L170.32 233.85L170.47 9.36999C170.47 7.07999 172.09 6.13999 174.08 7.28999L470.27 178.29C471.316 178.976 472.187 179.898 472.812 180.982C473.437 182.066 473.8 183.281 473.87 184.53L473.72 409Z" fill="white"/>
<path opacity="0.4" d="M381.1 494.7C393.963 494.7 404.39 488.683 404.39 481.26C404.39 473.837 393.963 467.82 381.1 467.82C368.237 467.82 357.81 473.837 357.81 481.26C357.81 488.683 368.237 494.7 381.1 494.7Z" fill="#D6D8E5"/>
<path opacity="0.4" d="M104.02 500C116.883 500 127.31 493.983 127.31 486.56C127.31 479.137 116.883 473.12 104.02 473.12C91.1573 473.12 80.73 479.137 80.73 486.56C80.73 493.983 91.1573 500 104.02 500Z" fill="#D6D8E5"/>
<path opacity="0.4" d="M23.29 378.03C36.1527 378.03 46.58 372.013 46.58 364.59C46.58 357.167 36.1527 351.15 23.29 351.15C10.4273 351.15 0 357.167 0 364.59C0 372.013 10.4273 378.03 23.29 378.03Z" fill="#D6D8E5"/>
<path d="M87.7 396.64C87.7 396.64 88.36 406.52 89.7 407.93C91.04 409.34 95.37 410.33 95.37 410.33L98.75 415.88C98.75 415.88 95.62 398.22 95 397.8C94.38 397.38 87.7 396.64 87.7 396.64Z" fill="#FFCEA9"/>
<path d="M94.19 385.67C93.3688 385.289 92.4361 385.223 91.5695 385.485C90.7029 385.747 89.9628 386.318 89.49 387.09C88.25 389.15 86.96 396.2 86.84 397.41C86.84 397.41 88.58 399.82 91.2 399.41L94.19 385.67Z" fill="#EDEDED"/>
<path d="M104.19 484.24C106.026 484.742 107.986 484.505 109.65 483.58C110.97 483.58 118.11 480.58 119.08 483.13C119.93 485.38 116.84 487.46 115.19 487.86C111.58 488.73 108.91 490.53 107.46 490.86C106.38 491.08 104.98 491.23 104.12 490.38C103.09 489.35 103.18 485.58 104.19 484.24Z" fill="#38226D"/>
<path d="M107.46 490.21C108.91 489.91 111.58 488.11 115.19 487.21C116.57 486.88 118.96 485.36 119.19 483.56C119.51 485.63 116.72 487.46 115.19 487.84C111.58 488.71 108.91 490.51 107.46 490.84C106.38 491.06 104.98 491.21 104.12 490.36C103.896 490.115 103.735 489.82 103.65 489.5C104.186 489.907 104.809 490.183 105.471 490.306C106.132 490.429 106.814 490.397 107.46 490.21Z" fill="#9C73FF"/>
<path d="M93.0699 480.77C94.9058 481.278 96.8679 481.041 98.5299 480.11C99.8399 480.11 106.99 477.11 107.96 479.66C108.81 481.91 105.72 483.99 104.06 484.39C100.46 485.26 97.7899 487.06 96.3399 487.39C95.2599 487.62 93.8599 487.76 92.9999 486.92C91.9999 485.88 92.0599 482.11 93.0699 480.77Z" fill="#38226D"/>
<path d="M96.34 486.74C97.79 486.44 100.46 484.64 104.06 483.74C105.45 483.4 107.83 481.88 108.06 480.08C108.38 482.15 105.59 483.99 104.06 484.36C100.46 485.23 97.79 487.03 96.34 487.36C95.26 487.59 93.86 487.73 93 486.89C92.7747 486.643 92.6134 486.344 92.53 486.02C93.064 486.431 93.6871 486.71 94.349 486.835C95.011 486.96 95.693 486.928 96.34 486.74Z" fill="#9C73FF"/>
<path d="M92.28 460.68C92.5879 458.029 93.1369 455.411 93.92 452.86C93.92 452.86 93.43 446.11 93.19 439.71C92.91 432.44 90.39 426.05 92.38 420.25L114.5 425.17C114.5 425.17 113.43 454.17 113.13 457.7C112.969 460.428 112.635 463.144 112.13 465.83C111.1 471.46 110 484 110 484C107.63 485.37 104.16 484.24 104.16 484.24C104.16 484.24 104.16 468.49 104.29 464.44C104.48 459.44 104.63 459.87 104.63 459.87L103.89 447.55L103.41 441.42C103.41 441.42 102.78 445.92 102.41 449.94C102.06 453.44 101.21 456.61 100.27 463.13C99.45 468.79 98.6 480.32 98.6 480.32C96.23 481.7 93.04 480.75 93.04 480.75C93.04 480.75 91.63 465.59 92.28 460.68Z" fill="#2F2E41"/>
<path d="M95.3799 385.79C97.0799 385.88 98.3799 386.32 98.5699 385.79C98.7558 384.912 98.886 384.024 98.9599 383.13C98.7599 382.63 98.5899 382.13 98.5899 382.13C96.4499 380.81 95.7699 378.49 95.4899 375.79C95.0099 371.18 97.4899 367.15 102.11 366.67C106.44 366.21 109.63 369.26 110.49 373.44C110.94 375.51 111.86 379.44 110.62 382.81C109.93 384.71 109.04 386.22 108.16 386.51C107.299 386.485 106.441 386.409 105.59 386.28L105.21 388.38C105.05 389.2 105.11 389.64 106.75 390.64C108.39 391.64 104.27 393.72 101.58 393.52C98.8899 393.32 95.8799 391.7 95.0499 389.96C94.1199 388 94.2099 385.74 95.3799 385.79Z" fill="#FFCEA9"/>
<path d="M97.85 386.05C97.37 387.23 98.57 388.67 101.78 389.68C104.99 390.69 105.28 389.39 105.28 389.39C107.414 390.345 109.494 391.417 111.51 392.6C113.43 393.94 114.28 397.83 114.51 404.41C114.81 412.01 114.84 423.29 114.59 425.24C114.59 425.24 110.99 428.82 106.39 428.44C101.79 428.06 94.08 424 92.2 420.85C92.2 414.18 93.03 413.1 91.95 409.25C89.48 400.46 88.18 396.86 89.38 391.02C90.38 386.2 91.75 385.6 93.66 385.65C95.0627 385.71 96.4613 385.843 97.85 386.05Z" fill="#F4F4F4"/>
<path d="M110.57 431.09L108.23 404.61L113.17 401.99L115.09 403.61L114.5 427.39V428.04V428.88C114.5 428.88 114.61 430.88 110.84 433.27C110.84 433.27 110.78 432.64 110.72 432.06L110.63 431.06L110.57 431.09Z" fill="#FFCEA9"/>
<path d="M110 391C112.55 391 114.17 392.3 114.8 396.23C115.43 400.16 115.8 403.37 115.8 403.37C114.631 404.674 113.006 405.479 111.26 405.62C108.17 405.97 107.26 404.4 107.26 404.4C107.26 404.4 106.93 400.32 106.76 397.55C106.59 394.78 106.83 391 110 391Z" fill="#EDEDED"/>
<path d="M110.34 372.82C110.34 372.82 114.34 366.77 105.69 365.53C99.46 364.64 95.46 368.64 95 372.98C94.56 377.13 97.11 381.44 99 383.15C100.812 383.608 102.729 383.376 104.38 382.5C104.48 381.37 104.52 380.235 104.5 379.1C104.5 379.1 101.42 372.71 110.34 372.82Z" fill="#3A2C6D"/>
<path opacity="0.4" d="M445 367.55L205.66 229.37C200.73 226.53 196.73 218.89 196.73 212.31V36.09C196.73 29.51 200.73 26.49 205.66 29.34L445 167.51C449.93 170.36 453.93 178 453.93 184.57V360.8C453.92 367.37 449.92 370.4 445 367.55Z" fill="#D6D8E5"/>
<path d="M431.58 342.8L192.26 204.63C187.32 201.78 183.33 194.14 183.33 187.56V11.34C183.33 4.75999 187.33 1.73999 192.26 4.58999L431.58 142.76C436.51 145.61 440.51 153.25 440.51 159.83V336.05C440.51 342.63 436.51 345.65 431.58 342.8Z" fill="white"/>
<path d="M440.51 173.7L183.33 25.21V11.34C183.33 4.75999 187.33 1.73999 192.26 4.58999L431.58 142.76C436.51 145.61 440.51 153.25 440.51 159.83V173.7Z" fill="#0D91CF"/>
<path d="M201.166 26.2145C202.385 25.5103 202.385 23.2257 201.164 21.1116C199.944 18.9976 197.965 17.8547 196.746 18.5588C195.526 19.263 195.527 21.5476 196.747 23.6616C197.968 25.7757 199.946 26.9186 201.166 26.2145Z" fill="white"/>
<path d="M226.171 40.2914C227.396 39.5872 227.4 37.2948 226.179 35.171C224.959 33.0472 222.976 31.8964 221.751 32.6006C220.526 33.3048 220.522 35.5972 221.742 37.721C222.963 39.8448 224.946 40.9956 226.171 40.2914Z" fill="white"/>
<path d="M213.22 33.172C214.44 32.4678 214.439 30.1832 213.218 28.0692C211.998 25.9551 210.02 24.8122 208.8 25.5163C207.58 26.2205 207.581 28.5051 208.802 30.6192C210.022 32.7332 212 33.8762 213.22 33.172Z" fill="white"/>
<path d="M219.94 193.8L207.44 186.58V135.03L219.94 142.24V193.8Z" fill="#20AD76"/>
<path d="M266.38 220.61L253.87 213.39V125.75L266.38 132.97V220.61Z" fill="#20AD76"/>
<path d="M243.16 207.21L230.66 199.99V130.9L243.16 138.12V207.21Z" fill="#0D91CF"/>
<path d="M289.59 234.01L277.09 226.8V105.13L289.59 112.34V234.01Z" fill="#0D91CF"/>
<path d="M418.19 201.02L319.06 143.79V129.36L418.19 186.59V201.02Z" fill="#E9EAF2"/>
<path d="M418.19 219.58L319.06 162.35V155.13L418.19 212.36V219.58Z" fill="#E9EAF2"/>
<path d="M418.19 233.33L319.06 176.1V168.88L418.19 226.11V233.33Z" fill="#E9EAF2"/>
<path d="M404.79 239.34L319.06 189.85V182.63L404.79 232.13V239.34Z" fill="#E9EAF2"/>
<path d="M392.29 245.88L319.06 203.6V196.38L392.29 238.66V245.88Z" fill="#E9EAF2"/>
<path d="M361.04 257.73L330.67 240.2V232.99L361.04 250.51V257.73Z" fill="#E9EAF2"/>
<path d="M327.99 238.66L319.06 233.5V226.28L327.99 231.44V238.66Z" fill="#20AD76"/>
<path d="M361.04 275.26L330.67 257.73V250.51L361.04 268.04V275.26Z" fill="#E9EAF2"/>
<path d="M327.99 256.19L319.06 251.03V243.81L327.99 248.97V256.19Z" fill="#0D91CF"/>
<path d="M415.51 289.18L385.15 271.65V264.44L415.51 281.96V289.18Z" fill="#E9EAF2"/>
<path d="M382.47 270.11L373.54 264.95V257.73L382.47 262.89V270.11Z" fill="#0D91CF"/>
<path d="M415.51 306.71L385.15 289.18V281.96L415.51 299.49V306.71Z" fill="#E9EAF2"/>
<path d="M382.47 287.63L373.54 282.48V275.26L382.47 280.42V287.63Z" fill="#20AD76"/>
<path opacity="0.4" d="M162.43 352.59L76.02 302.33L84.49 296.52L170.89 346.78L162.43 352.59Z" fill="#D6D8E5"/>
<path d="M167.12 345.12L94.79 303.36C89.85 300.51 85.86 292.87 85.86 286.3V169.88C85.86 163.3 89.86 160.28 94.79 163.13L167.12 204.89C172.05 207.74 176.05 215.38 176.05 221.95V338.37C176.05 345 172.05 348 167.12 345.12Z" fill="#C4C7D6"/>
<path d="M167.61 348.79L173.18 345.45L167.56 336.62L167.61 348.79Z" fill="#C4C7D6"/>
<path d="M84.3 165.5L89.37 162.44L89.19 170.6L84.3 165.5Z" fill="#C4C7D6"/>
<path d="M162 348.22L89.63 306.45C84.7 303.61 80.7 296 80.7 289.39V173C80.7 166.43 84.7 163.4 89.63 166.25L162 208C166.93 210.85 170.93 218.49 170.93 225.07V341.46C170.89 348 166.89 351.06 162 348.22Z" fill="#D6D8E5"/>
<path d="M157.5 238.4L94.09 201.79V183.24L157.5 219.84V238.4Z" fill="#0D91CF"/>
<path d="M111.95 249.23L94.99 239.43V220.87L111.95 230.67V249.23Z" fill="#0D91CF"/>
<path d="M134.28 262.12L117.31 252.32V233.76L134.28 243.56V262.12Z" fill="#0D91CF"/>
<path d="M156.6 275L139.64 265.21V246.65L156.6 256.44V275Z" fill="#0D91CF"/>
<path d="M111.95 277.07L94.99 267.27V248.71L111.95 258.51V277.07Z" fill="#0D91CF"/>
<path d="M134.28 289.96L117.31 280.16V261.6L134.28 271.4V289.96Z" fill="#0D91CF"/>
<path d="M156.6 302.85L139.64 293.05V274.49L156.6 284.29V302.85Z" fill="#0D91CF"/>
<path d="M111.95 304.91L94.99 295.11V276.55L111.95 286.35V304.91Z" fill="#0D91CF"/>
<path d="M134.28 317.8L117.31 308V289.44L134.28 299.24V317.8Z" fill="#0D91CF"/>
<path d="M156.6 330.69L139.64 320.89V302.33L156.6 312.13V330.69Z" fill="#0D91CF"/>
<path opacity="0.4" d="M415.43 466.69L380.79 446.69L388.87 442.03L423.51 462.03L415.43 466.69Z" fill="#D6D8E5"/>
<path d="M427.29 460.03L391.57 439.4L396.04 398.68L422.83 414.14L427.29 460.03Z" fill="#1B8D61"/>
<path d="M418.01 465.18L382.29 444.56L386.76 403.83L413.55 419.3L418.01 465.18Z" fill="#20AD76"/>
<path d="M418.01 465.18L427.29 460.03L422.83 414.14L413.55 419.3L418.01 465.18Z" fill="#20AD76"/>
<path d="M386.76 403.83L396.04 398.68L394.95 408.56L386.76 403.83Z" fill="#1B8D61"/>
<path d="M406.84 415.34L405.19 414.34C405.19 410.5 402.93 406.06 400.19 404.46C397.45 402.86 395.19 404.68 395.19 408.52L393.54 407.57C393.54 402.67 396.54 400.42 400.23 402.57C403.92 404.72 406.84 410.44 406.84 415.34Z" fill="#7C5522"/>
<path d="M415.55 410L413.9 409.05C413.9 405.2 411.64 400.77 408.9 399.17C406.16 397.57 403.9 399.38 403.9 403.23L402.25 402.28C402.25 397.38 405.25 395.13 408.94 397.28C412.63 399.43 415.55 405.12 415.55 410Z" fill="#7C5522"/>
<path d="M395.31 380.29C397.31 380.86 398.41 383.05 400.14 387.72C401.587 391.954 402.29 396.406 402.22 400.88C401.67 405.28 399.85 408.7 395.44 412.27L393.34 408.42C393.34 408.42 397.65 404.61 398.09 400.21C398.34 397.74 395.44 389.41 395.44 389.21C395.44 389.01 395.31 380.29 395.31 380.29Z" fill="#FFCEA9"/>
<path d="M378.06 481.72C377.394 481.925 376.691 481.983 376.001 481.89C375.31 481.797 374.648 481.554 374.06 481.18C372.98 481.18 366.66 478.71 365.86 480.81C365.17 482.65 367.7 484.35 369.05 484.68C372 485.4 374.19 486.87 375.38 487.12C375.833 487.278 376.317 487.325 376.792 487.257C377.268 487.189 377.719 487.009 378.11 486.73C379 485.9 378.89 482.82 378.06 481.72Z" fill="#38226D"/>
<path d="M375.39 486.61C374.2 486.36 372.01 484.89 369.06 484.17C367.93 483.9 365.97 482.66 365.78 481.17C365.51 482.86 367.78 484.37 369.06 484.67C372.01 485.39 374.2 486.86 375.39 487.11C375.843 487.268 376.327 487.315 376.802 487.247C377.278 487.179 377.729 486.999 378.12 486.72C378.302 486.519 378.435 486.28 378.51 486.02C378.072 486.354 377.562 486.582 377.02 486.684C376.478 486.787 375.92 486.761 375.39 486.61Z" fill="#9C73FF"/>
<path d="M394.12 473.37C393.543 473.569 392.925 473.626 392.321 473.536C391.717 473.445 391.144 473.21 390.65 472.85C389.65 472.85 383.15 470.47 382.38 472.5C381.71 474.27 384.15 475.91 385.45 476.22C388.29 476.91 390.4 478.33 391.54 478.57C391.976 478.724 392.442 478.771 392.9 478.706C393.358 478.642 393.794 478.468 394.17 478.2C395 477.4 394.91 474.43 394.12 473.37Z" fill="#38226D"/>
<path d="M391.54 478.08C390.4 477.84 388.29 476.42 385.45 475.73C384.36 475.47 382.45 474.27 382.29 472.85C382.04 474.48 384.24 475.93 385.45 476.22C388.29 476.91 390.4 478.33 391.54 478.57C391.976 478.724 392.442 478.771 392.9 478.706C393.358 478.642 393.794 478.468 394.17 478.2C394.346 478.006 394.473 477.773 394.54 477.52C394.118 477.841 393.627 478.058 393.106 478.155C392.585 478.253 392.049 478.227 391.54 478.08Z" fill="#9C73FF"/>
<path d="M396.24 457.33C396.242 454.903 395.823 452.493 395 450.21C395 450.21 395.83 440.46 396.45 434.06C397.36 424.62 398.81 423.69 398.4 417.96C398.02 412.64 395 409.19 394.21 405.59L378.8 406.81C378.8 406.81 377.46 411.17 375.73 419.87C374 428.57 373.89 438.92 374.05 452.63C374.1 456.16 373.45 459.23 373.66 468.03C373.8 473.95 374.13 481.19 374.13 481.19C376.39 483.13 377.95 481.7 377.95 481.7C377.95 481.7 381.9 464.18 382.48 460.15C382.9 457.925 382.713 455.628 381.94 453.5C381.94 453.5 383.1 447.99 383.94 443.66C384.99 438.38 387.57 426.97 387.57 426.97C387.57 426.97 387.13 444.5 387.9 447.97C388.67 451.44 388.8 454.43 389.45 459.13C390.24 464.82 390.6 473.13 390.6 473.13C392.95 474.62 393.99 473.47 393.99 473.47C393.99 473.47 396.24 462.3 396.24 457.33Z" fill="#FFCEA9"/>
<path d="M394.21 405.59C395.82 407.24 398.49 412.27 398.49 419.88C398.49 428.44 397.24 426.7 396.65 436.14L396.05 445.57C396.05 445.57 383.18 451.71 374 446.01C373.18 444.23 374.31 424.4 375.91 417.35C377.51 410.3 378.64 406.84 378.64 406.84C378.64 406.84 390.48 410 394.21 405.59Z" fill="#2F2E41"/>
<path d="M394.39 380.2C391.11 380.01 390.8 380.55 390.53 379.39C390.44 378.97 390.26 376.08 390.26 376.08C390.562 375.697 390.836 375.292 391.08 374.87C392.579 373.952 393.752 372.588 394.434 370.969C395.117 369.349 395.274 367.557 394.884 365.843C394.495 364.13 393.577 362.582 392.262 361.417C390.946 360.252 389.298 359.529 387.55 359.35C383.19 358.89 379.99 361.95 379.14 366.15C378.68 368.22 378.2 372.46 379.49 375.85C380.22 377.77 380.89 379.12 382.63 379.05C383.207 378.998 383.779 378.898 384.34 378.75C384.433 379.546 384.467 380.349 384.44 381.15C384.39 381.99 384.54 382.42 382.89 383.43C381.24 384.44 385.38 386.52 388.07 386.32C390.76 386.12 393.8 384.48 394.64 382.74C395.56 380.79 395.94 380.3 394.39 380.2Z" fill="#FFCEA9"/>
<path d="M396.81 394.75C396.81 394.75 400.52 393.91 402.22 392.26C402.22 392.26 400.01 385.31 398.6 383.56C397.19 381.81 395.82 393.04 395.82 393.04L396.81 394.75Z" fill="#EDEDED"/>
<path d="M391.14 380.13C391.74 380.89 391.81 381.84 389.47 382.43C387.768 382.916 385.949 382.778 384.34 382.04C382.494 382.818 380.72 383.758 379.04 384.85C377.04 391.42 378.66 392.26 377.82 396.97C378.14 399.34 378.54 405.45 378.64 406.84C383.1 409.96 392.17 408.9 394.21 405.59C394.241 404.484 394.345 403.382 394.52 402.29C396.65 394.39 398.32 392.29 397.72 386.29C397.38 382.88 397.12 381.17 395.31 380.29C393.933 380.055 392.531 380.001 391.14 380.13Z" fill="#F4F4F4"/>
<path d="M350.09 405.84C351.107 406.064 352.109 406.351 353.09 406.7C354.002 407.183 354.984 407.521 356 407.7C357.1 407.88 358.81 407.31 361.77 405.91C365.007 404.25 367.936 402.048 370.43 399.4C373.262 396.026 375.795 392.413 378 388.6C379.28 386.26 380.91 385.67 382.32 386.13C384.01 386.69 384.22 388.36 382.32 391.52C379.896 395.632 376.989 399.439 373.66 402.86C371.046 405.482 368.002 407.636 364.66 409.23C362.266 410.47 359.707 411.359 357.06 411.87C356.13 412.07 355.5 412.45 353.79 413.05C352.09 413.672 350.265 413.875 348.47 413.64C346.98 413.35 346.47 413.01 346.41 412.64C346.35 412.27 346.66 412.02 347.35 412.07C348.446 412.24 349.564 412.213 350.65 411.99C350.65 411.99 349.13 411.94 348.21 411.83C347.4 411.737 346.606 411.535 345.85 411.23C345.12 410.92 344.85 409.78 345.58 409.82C346.31 409.86 346.82 410.07 348.17 410.21C348.887 410.297 349.613 410.297 350.33 410.21C349.434 410.063 348.552 409.846 347.69 409.56C346.98 409.37 346.341 408.977 345.85 408.43C345.6 408.14 345.67 407.43 346.53 407.6C347.574 407.97 348.658 408.211 349.76 408.32C350.87 408.32 351.65 408.23 351.51 408.05C351.37 407.87 350.72 407.91 349.87 407.43C349.02 406.95 348.55 406.06 348.87 405.63C349.19 405.2 349.19 405.51 350.09 405.84Z" fill="#FFCEA9"/>
<path d="M380.53 395.31C377.945 394.932 375.554 393.721 373.72 391.86L377.84 386.14C377.84 386.14 380.16 383.21 383.22 384.87C383.22 384.87 385.54 385.12 383.22 389.95C382.43 391.788 381.532 393.578 380.53 395.31Z" fill="#EDEDED"/>
<path d="M378.34 363.67C378.507 362.688 379.051 361.81 379.856 361.224C380.662 360.637 381.664 360.388 382.65 360.53C384.088 359.559 385.828 359.14 387.55 359.35C391.46 359.75 394.02 362.29 395.21 366.21C395.786 368.168 396.171 370.178 396.36 372.21C397.54 380.92 400.7 387.84 397.74 390.42C394.78 393 386.68 394.65 383.3 393C379.92 391.35 386.09 376.36 379.38 368C377.81 366.05 377.66 364.66 378.34 363.67Z" fill="#3A2C6D"/>
<path d="M11 360.45C12.53 361.69 14.78 360.56 14.89 360.67C16.6813 362.333 18.5607 363.899 20.52 365.36C21.52 366.11 22.95 367.11 22.68 368.54C22.2 371.11 18.09 370.32 16.54 369.54C14.99 368.76 13.72 367.45 12.25 366.54C11.25 365.89 10.17 365.54 10.01 364.23C9.85997 363.42 10.68 360.42 11 360.45Z" fill="#38226D"/>
<path d="M10 363.69C10.2 364.96 11.22 365.31 12.26 365.95C13.75 366.88 15.06 368.22 16.61 369C18.16 369.78 21.61 370.45 22.61 368.61C22.07 371.09 18.02 370.31 16.49 369.54C14.96 368.77 13.67 367.45 12.2 366.54C11.2 365.89 10.12 365.54 9.96 364.23C9.94879 364.049 9.96225 363.867 10 363.69Z" fill="#9C73FF"/>
<path d="M24.19 355.53C25.71 356.77 28.38 355.41 28.5 355.53C30.0801 357.136 31.7494 358.652 33.5 360.07C34.45 360.82 35.94 361.82 35.67 363.25C35.19 365.82 31.07 365.03 29.52 364.25C27.97 363.47 26.7 362.16 25.23 361.25C24.23 360.6 23.15 360.25 22.99 358.94C22.91 358.14 23.92 355.5 24.19 355.53Z" fill="#38226D"/>
<path d="M23.0601 358.58C23.2601 359.85 24.2801 360.2 25.3201 360.85C26.8101 361.77 28.1201 363.11 29.6701 363.85C31.2201 364.59 34.6701 365.29 35.6701 363.46C35.1301 365.94 31.0801 365.16 29.5501 364.38C28.0201 363.6 26.7301 362.29 25.2601 361.38C24.2101 360.73 23.1801 360.38 23.0201 359.07C23.0138 358.906 23.0272 358.741 23.0601 358.58Z" fill="#9C73FF"/>
<path d="M10.8601 304.15C10.9401 306.46 11.6601 316.47 11.9801 321.77C12.3001 327.07 12.3701 333.57 12.3701 333.57C12.3701 333.57 11.4601 337.44 10.8601 341.98C10.2601 346.52 10.8601 360.85 10.8601 360.85C11.4443 361.222 12.1225 361.42 12.8151 361.42C13.5076 361.42 14.1858 361.222 14.7701 360.85C14.7701 360.85 17.2101 349.38 18.3401 344.21C19.4701 339.04 19.6701 336.07 20.2501 332.86C20.9601 328.99 22.4901 310.91 22.4901 310.91H23.1101L24.7401 331.32C24.2464 332.828 23.9113 334.383 23.7401 335.96C23.3001 339.28 24.21 356.01 24.21 356.01C24.8614 356.372 25.5996 356.547 26.3439 356.517C27.0882 356.487 27.8099 356.253 28.4301 355.84C28.4301 355.84 32.51 333.68 32.51 330.31C32.51 328.08 32.1201 298.68 32.1201 298.68L10.8601 304.15Z" fill="#2F2E41"/>
<path d="M16.39 259.57C16.39 259.57 16.65 264.57 16.54 265.04C16.43 265.51 14.23 266.96 13.59 267.49C12.95 268.02 17.07 272.08 19.07 273C21.07 273.92 27.41 271.5 27.53 268.38C27.65 265.26 26.44 262.65 25.47 262.51C24.5 262.37 16.39 259.57 16.39 259.57Z" fill="#FFCEA9"/>
<path d="M30.1701 268.9C30.4601 266.68 29.0001 264.58 30.4201 262.81C35.4201 267.68 34.7501 280.55 35.8801 288.81C39.5601 292.67 46.9701 296.46 49.0501 297.4C49.43 297.58 49.76 297.76 49.6901 298.17C49.4143 299.531 48.8368 300.812 48.0001 301.92C43.1001 299.8 39.5701 298.59 33.44 292.77C32.8625 292.153 32.3436 291.483 31.8901 290.77C30.1001 285.48 29.6601 272.73 30.1701 268.9Z" fill="#FFCEA9"/>
<path d="M15.8301 265.91C15.8301 265.91 19.4801 271.35 24.5701 271.86C26.1801 270.28 26.3201 264.65 24.1001 262.86C24.1001 262.86 26.1001 261.21 27.5401 261.53C29.0384 262.437 30.1548 263.859 30.6801 265.53C31.9732 269.271 32.5829 273.213 32.4801 277.17C32.3901 282.51 32.4801 298.81 32.4801 298.81C32.4801 298.81 31.7601 302.26 27.1601 304.81C22.5601 307.36 19.1601 307.63 16.0101 306.9C13.4301 306.3 11.3001 305.39 10.4101 303.52C10.6401 299.78 12.3101 290.02 11.6901 285.32C11.0701 280.62 10.0701 277.11 9.81006 273.32C9.55006 269.53 10.3101 269.6 12.2201 268.24C13.3681 267.381 14.5743 266.602 15.8301 265.91Z" fill="#F4F4F4"/>
<path d="M27.77 252.07C27.17 248.17 24.36 245.21 20.34 245.43C18.7187 245.511 17.1641 246.101 15.896 247.114C14.628 248.128 13.7107 249.514 13.2739 251.078C12.8372 252.641 12.9031 254.303 13.4623 255.827C14.0215 257.35 15.0457 258.66 16.39 259.57C16.532 260.163 16.7434 260.737 17.02 261.28C18.44 262.94 22.75 263.97 24.02 263.79C24.7559 263.725 25.4552 263.44 26.0275 262.973C26.5998 262.506 27.0187 261.878 27.23 261.17C28.52 258.1 28.1 254 27.77 252.07Z" fill="#FFCEA9"/>
<path d="M16.39 259.57L16.76 256.16C16.76 256.16 14 249 20.55 250.34C24.89 251.26 25.98 251.65 27.3 248.74C28.62 245.83 23.97 243.21 18.44 243.94C16.5345 244.138 14.7728 245.044 13.5041 246.48C12.2353 247.915 11.5522 249.775 11.59 251.69C11.74 253.83 12.31 258.17 16.39 259.57Z" fill="#3A2C6D"/>
<path d="M8.69002 271.07C10.6 270.53 9.15002 270.98 10.6 270.53C15.6 275.39 14.94 283.74 16.07 291.98C18.81 296.51 29 302.65 29 302.65C29.13 303.52 28.82 303.78 27.72 305.56C22.0578 303.384 16.9067 300.061 12.59 295.8C12.35 295.57 12 295.51 11.9 295.2C10.13 289.94 8.19002 274.9 8.69002 271.07Z" fill="#FFCEA9"/>
<path d="M53.95 281.23L46.55 306.5L30.34 312.98L36.25 288.36L53.95 281.23Z" fill="#F4F4F4"/>
<path d="M26.42 302.83C26.66 301.97 27.29 302.18 27.99 302.4C28.7524 302.703 29.5867 302.776 30.39 302.61C31.0158 302.303 31.5949 301.909 32.11 301.44C32.4372 301.246 32.8099 301.143 33.19 301.14C33.19 301.35 32.82 302.64 32.82 302.64C32.82 302.64 36.3701 302.64 36.7401 302.64C36.8653 302.613 36.9958 302.627 37.1125 302.68C37.2292 302.733 37.3259 302.822 37.3885 302.934C37.451 303.045 37.4762 303.174 37.4603 303.301C37.4444 303.428 37.3882 303.547 37.3 303.64H37.54C38.2701 303.47 38.54 304.59 37.85 304.76L37.25 304.85C37.73 305.03 37.85 305.85 37.25 305.93H37.0601C36.9745 305.949 36.8856 305.949 36.8 305.93H36.69C36.7073 306.015 36.7071 306.102 36.6896 306.187C36.672 306.272 36.6374 306.352 36.5878 306.424C36.5383 306.495 36.4748 306.555 36.4013 306.601C36.3277 306.646 36.2457 306.677 36.16 306.69C34.42 306.91 31.87 307.6 30.3 306.17C29.2098 306.066 28.1449 305.778 27.15 305.32C26.16 304.83 26.13 303.86 26.42 302.83Z" fill="#FFCEA9"/>
<path d="M44.17 300.76H44.41C44.3064 300.687 44.2287 300.583 44.188 300.463C44.1473 300.342 44.1457 300.212 44.1835 300.091C44.2213 299.97 44.2964 299.864 44.3982 299.788C44.5 299.713 44.6232 299.671 44.75 299.67C45.12 299.67 48.75 298.91 48.75 298.91L49.19 297.41C49.19 297.32 49.82 297.71 49.84 297.72C50.1575 297.917 50.4267 298.183 50.6275 298.498C50.8283 298.813 50.9556 299.169 51 299.54C51.0467 300.577 50.6881 301.592 50 302.37C49.34 303.03 48.4529 303.413 47.52 303.44L46.26 303.52C46.174 303.527 46.0875 303.516 46.0059 303.488C45.9243 303.46 45.8493 303.416 45.7855 303.358C45.7218 303.299 45.6706 303.229 45.6353 303.15C45.5999 303.071 45.5811 302.986 45.58 302.9H45.4C45.3144 302.919 45.2257 302.919 45.14 302.9H45C44.38 302.9 44.33 302.12 44.75 301.84C44.55 301.84 44.35 301.84 44.15 301.84C43.36 301.92 43.42 300.76 44.17 300.76Z" fill="#FFCEA9"/>
<path d="M32.23 272.2C33.2343 272.154 34.1827 271.724 34.88 271C34.74 269.13 32.35 262 27.54 261.51C28.8482 262.428 29.8845 263.682 30.54 265.14C31.2835 267.447 31.8485 269.807 32.23 272.2Z" fill="#EDEDED"/>
<path d="M7.83002 281.57C7.83002 281.57 12.61 283.22 15.98 280.45C16.35 279.81 13.98 271.67 13.98 271.67C13.98 271.67 11.98 267.5 8.83002 269.16C5.68002 270.82 7.83002 281.57 7.83002 281.57Z" fill="#EDEDED"/>
</g>
<defs>
<clipPath id="clip0">
<rect width="481.03" height="500" fill="white"/>
</clipPath>
</defs>
</svg>
